<ttFont>
          <CharString index="0">
            -23 callgsubr
            -75 -31 callgsubr
            vhcurveto
            -96 callgsubr
            -13 21 vhcurveto
            170 hlineto
            return
          </CharString>
          <CharString index="1">
            -44 callgsubr
            -114 -91 -73 -122 -109 76 -76 112 48 38 18 27 28 hvcurveto
            return
          </CharString>
          <CharString index="2">
            79 vlineto
            -2 -11 -11 0 -9 hhcurveto
            -117 -51 80 101 89 40 41 51 49 29 -33 -77 hvcurveto
            91 callgsubr
            return
          </CharString>
          <CharString index="3">
            -64 -29 -32 -48 -44 16 -44 14 -24 hvcurveto
            79 hlineto
            -7 24 -5 29 19 -52 callgsubr
            return
          </CharString>
          <CharString index="4">
            -102 callgsubr
            vlineto
            endchar
          </CharString>
          <CharString index="5">
            -86 callsubr
            -102 -84 hlineto
            367 callgsubr
            126 callsubr
            17 hlineto
            115 122 71 150 100 -66 81 -110 256 callgsubr
            -22 5 -23 10 -22 hvcurveto
            return
          </CharString>
          <CharString index="6">
            -9 callsubr
            -73 hlineto
            -99 callgsubr
            return
          </CharString>
          <CharString index="7">
            rmoveto
            -245 hlineto
            95 12 55 47 64 hhcurveto
            73 39 -50 -74 2 hvcurveto
            63 -193 rmoveto
            -24 -34 -52 -14 -49 hhcurveto
            -92 -66 47 89 -14 hvcurveto
            333 hlineto
            3 17 3 33 15 vvcurveto
            156 -85 79 -126 -128 -99 -94 -167 -151 99 -106 159 47 64 11 21 37 vhcurveto
            endchar
          </CharString>
          <CharString index="8">
            -39 -16 -22 -40 -29 -28 3 callgsubr
            22 25 -5 31 hhcurveto
            80 51 46 89 hvcurveto
            228 return
          </CharString>
          <CharString index="9">
            9 19 23 5 26 hhcurveto
            22 27 -4 -8 26 hvcurveto
            84 vlineto
            6 -25 return
          </CharString>
          <CharString index="10">
            -76 145 callgsubr
            1 90 callsubr
            7 9 -1 8 hhcurveto
            110 94 68 127 106 -70 79 -112 -49 -41 -17 -29 -29 hvcurveto
            127 vlineto
            endchar
          </CharString>
          <CharString index="11">
            420 callsubr
            -7 0 90 callsubr
            6 9 -1 8 hhcurveto
            114 91 74 121 110 -75 75 -113 -19 callsubr
          </CharString>
          <CharString index="12">
            rmoveto
            11 34 rlineto
            87 265 11 46 0 vvcurveto
            0 10 -46 86 -265 vhcurveto
            11 -34 rlineto
            81 -251 rmoveto
            110 hlineto
            -230 674 rlineto
            -135 hlineto
            -233 -674 rlineto
            109 hlineto
            54 165 rlineto
            272 hlineto
            endchar
          </CharString>
          <CharString index="13">
            -185 268 rlineto
            -5 34 51 -4 72 hhcurveto
            return
          </CharString>
          <CharString index="14">
            -72 callsubr
            -94 callsubr
            return
          </CharString>
          <CharString index="15">
            -95 callgsubr
            vlineto
            endchar
          </CharString>
          <CharString index="16">
            rmoveto
            -69 -239 rlineto
            -43 -148 -45 -168 0 vvcurveto
            0 -42 189 -32 127 vhcurveto
            -63 249 rlineto
            -107 hlineto
            177 -674 rlineto
            124 hlineto
            62 213 rlineto
            61 206 23 95 0 vvcurveto
            0 25 -95 62 -206 vhcurveto
            64 -213 rlineto
            123 hlineto
            165 674 rlineto
            -104 hlineto
            -59 -250 rlineto
            -32 -135 -37 -182 0 vvcurveto
            0 -54 189 -37 128 vhcurveto
            -71 240 rlineto
            return
          </CharString>
          <CharString index="17">
            -57 callgsubr
            -25 48 67 -21 82 hhcurveto
            133 80 69 92 95 -65 45 -120 3 hvcurveto
            return
          </CharString>
          <CharString index="18">
            -80 128 -218 hlineto
            -27 -7 -77 callgsubr
            130 return
          </CharString>
          <CharString index="19">
            rmoveto
            -61 -62 49 112 100 47 69 80 61 64 -47 -129 -104 -65 -50 -64 hvcurveto
            129 409 rmoveto
            -79 vlineto
            52 -28 -47 34 -72 hhcurveto
            -127 -81 -110 -147 -163 102 -80 106 67 49 30 52 31 hvcurveto
            -52 vlineto
            -104 -56 -43 -93 -53 -59 14 28 -43 vhcurveto
            -99 vlineto
            -24 49 61 -9 55 hhcurveto
            129 108 71 165 hvcurveto
            464 vlineto
            endchar
          </CharString>
          <CharString index="20">
            80 vlineto
            2 -7 -8 0 -8 hhcurveto
            return
          </CharString>
          <CharString index="21">
            -9 18 -6 19 22 vvcurveto
            37 19 34 45 47 32 -30 -69 -89 -63 -52 -109 vhcurveto
            return
          </CharString>
          <CharString index="22">
            rmoveto
            156 86 116 146 145 -82 116 -160 -147 -93 373 callgsubr
            -143 85 -115 155 hvcurveto
            -1 440 rmoveto
            102 38 -84 -96 -96 -44 -81 -95 -88 -50 82 96 95 46 84 91 hvcurveto
            return
          </CharString>
          <CharString index="23">
            3 9 31 5 22 hhcurveto
            54 36 -20 -39 32 hvcurveto
            92 -116 -38 34 rlineto
            71 -81 -40 21 -62 hhcurveto
            -22 -26 -6 255 callgsubr
            2 6 30 6 21 hhcurveto
            return
          </CharString>
          <CharString index="24">
            17 -19 13 -29 -38 vvcurveto
            return
          </CharString>
          <CharString index="25">
            47 94 vvcurveto
            37 -10 32 return
          </CharString>
          <CharString index="26">
            rmoveto
            -14 -26 -30 -9 -37 hhcurveto
            -77 -57 52 78 33 9 28 15 21 hvcurveto
            return
          </CharString>
          <CharString index="27">
            rmoveto
            29 -51 -60 8 -62 hhcurveto
            -196 -145 -139 -206 -214 145 -132 198 57 68 10 31 47 hvcurveto
            104 vlineto
            -31 -41 -62 -19 -60 hhcurveto
            -145 -99 96 155 154 105 96 131 76 39 -13 -30 55 hvcurveto
            return
          </CharString>
          <CharString index="28">
            -60 -46 -43 -54 162 callsubr
            return
          </CharString>
          <CharString index="29">
            rmoveto
            135 162 rlineto
            -97 hlineto
            -83 -102 -83 102 rlineto
            -97 hlineto
            135 -162 rlineto
            return
          </CharString>
          <CharString index="30">
            68 -43 -56 35 -78 hhcurveto
            -30 -31 -5 255 callgsubr
            -84 callsubr
            return
          </CharString>
          <CharString index="31">
            94 callgsubr
            hintmask 1110111110000000
            -11 callgsubr
            return
          </CharString>
          <CharString index="32">
            -141 106 -83 159 53 62 16 17 33 vhcurveto
            88 vlineto
            -19 -30 -60 -20 -53 hhcurveto
            -100 -71 48 91 20 callgsubr
            hvcurveto
            return
          </CharString>
          <CharString index="33">
            37 -77 hhcurveto
            -110 -67 -86 -122 return
          </CharString>
          <CharString index="34">
            -58 callgsubr
            -51 return
          </CharString>
          <CharString index="35">
            rlineto
            117 hlineto
            return
          </CharString>
          <CharString index="36">
            439 callsubr
            -64 -41 47 61 vhcurveto
            return
          </CharString>
          <CharString index="37">
            -68 -5 -48 -44 -72 hhcurveto
            -72 -49 46 82 77 54 47 84 hvcurveto
            return
          </CharString>
          <CharString index="38">
            84 38 35 65 16 15 -3 -4 13 vhcurveto
            -392 -67 callgsubr
          </CharString>
          <CharString index="39">
            rmoveto
            339 callgsubr
            117 hlineto
            -141 168 rlineto
            return
          </CharString>
          <CharString index="40">
            -221 -69 callgsubr
            return
          </CharString>
          <CharString index="41">
            rmoveto
            46 35 -37 -39 -55 -34 -26 -40 -16 hvcurveto
            -56 12 -32 30 53 vvcurveto
            43 33 35 48 vhcurveto
            return
          </CharString>
          <CharString index="42">
            103 282 hlineto
            169 -8 100 0 vhcurveto
            0 48 -99 102 -171 vhcurveto
            167 -281 rlineto
            122 674 -103 -283 hlineto
            -176 6 -91 0 vhcurveto
            0 -45 90 -104 178 vhcurveto
            -166 282 rlineto
            -122 hlineto
            return
          </CharString>
          <CharString index="43">
            21 -41 -46 7 -34 hhcurveto
            -170 -95 -126 -138 -144 98 -118 163 44 50 11 19 31 hvcurveto
            88 vlineto
            -19 -30 -42 -14 -40 hhcurveto
            -112 -59 78 98 -2 hvcurveto
            return
          </CharString>
          <CharString index="44">
            95 callgsubr
            -32 callgsubr
            80 return
          </CharString>
          <CharString index="45">
            -95 callgsubr
            80 vlineto
            endchar
          </CharString>
          <CharString index="46">
            rmoveto
            -34 25 -25 34 33 27 25 34 33 -27 27 -33 -62 callgsubr
            vhcurveto
            endchar
          </CharString>
          <CharString index="47">
            1 -6 -7 0 -6 hhcurveto
            -20 -26 -2 -5 -14 hvcurveto
            313 callgsubr
            return
          </CharString>
          <CharString index="48">
            -42 -34 41 -59 hhcurveto
            -47 -40 -35 -39 -18 hvcurveto
            49 -45 rlineto
            30 20 17 16 33 hhcurveto
            return
          </CharString>
          <CharString index="49">
            -36 callgsubr
            -5 -10 0 -6 hhcurveto
            -91 -41 59 89 return
          </CharString>
          <CharString index="50">
            -60 callgsubr
            173 84 hstem
            87 return
          </CharString>
          <CharString index="51">
            hhcurveto
            -77 -68 35 73 -20 hvcurveto
            -46 callsubr
            return
          </CharString>
          <CharString index="52">
            201 callsubr
            -27 -29 -7 -10 -18 vhcurveto
            -78 vlineto
            8 14 21 6 20 -21 callsubr
            134 return
          </CharString>
          <CharString index="53">
            -70 -49 -37 -71 -42 -36 10 16 -31 vhcurveto
            -86 15 callgsubr
            return
          </CharString>
          <CharString index="54">
            -79 callsubr
            vhcurveto
            return
          </CharString>
          <CharString index="55">
            570 112 return
          </CharString>
          <CharString index="56">
            rmoveto
            208 249 86 -249 208 281 86 -384 -674 389 86 vlineto
            endchar
          </CharString>
          <CharString index="57">
            4 54 4 4 hhcurveto
            54 -1 28 -22 -42 vvcurveto
            -48 -43 -29 -72 -71 -73 24 34 -54 vhcurveto
            -93 vlineto
            29 -15 37 -14 42 -8 -115 -150 rcurveline
            117 hlineto
            90 193 callsubr
            154 78 23 44 56 1 69 rlinecurve
            78 -46 61 -108 4 vhcurveto
            -4 -54 -3 -5 hhcurveto
            -58 1 -41 17 44 vvcurveto
            42 37 14 38 vhcurveto
            return
          </CharString>
          <CharString index="58">
            66 36 -40 -63 -110 -82 -63 -113 -79 -62 34 58 hvcurveto
            return
          </CharString>
          <CharString index="59">
            85 vlineto
            148 callgsubr
            -24 hhcurveto
            return
          </CharString>
          <CharString index="60">
            88 -20 -72 51 -110 hhcurveto
            -32 -35 -6 174 callgsubr
            43 -42 -67 -71 -44 -47 -84 -60 -50 20 22 -36 hvcurveto
            -90 vlineto
            -17 29 60 -19 64 hhcurveto
            118 84 74 97 14 hvcurveto
            return
          </CharString>
          <CharString index="61">
            24 callgsubr
            -78 callgsubr
            return
          </CharString>
          <CharString index="62">
            rmoveto
            35 26 26 34 34 -26 26 -35 -34 -26 -26 -34 -34 26 -26 34 hvcurveto
            -220 hmoveto
            34 26 26 34 34 -26 26 -34 -36 -25 -26 -34 -34 25 -26 36 hvcurveto
            return
          </CharString>
          <CharString index="63">
            68 53 26 40 33 hvcurveto
            -155 96 -84 callgsubr
          </CharString>
          <CharString index="64">
            rmoveto
            84 hlineto
            120 162 -6 callgsubr
            return
          </CharString>
          <CharString index="65">
            -56 callgsubr
            -90 hlineto
            -25 callsubr
            return
          </CharString>
          <CharString index="66">
            111 callgsubr
            138 -24 callsubr
            return
          </CharString>
          <CharString index="67">
            78 88 -15 callgsubr
            return
          </CharString>
          <CharString index="68">
            -83 100 callgsubr
            34 86 vhcurveto
            182 213 vlineto
            return
          </CharString>
          <CharString index="69">
            -21 570 80 return
          </CharString>
          <CharString index="70">
            83 33 -35 -50 -75 -60 -24 -52 -45 -37 11 21 -41 hvcurveto
            -90 vlineto
            -15 36 45 -9 45 hhcurveto
            134 69 73 97 hvcurveto
            return
          </CharString>
          <CharString index="71">
            44 -8 -17 callgsubr
            return
          </CharString>
          <CharString index="72">
            -60 97 322 vlineto
            126 -61 67 -138 -62 -61 -15 -19 -33 vhcurveto
            endchar
          </CharString>
          <CharString index="73">
            rmoveto
            -25 callsubr
            82 102 -56 callgsubr
            return
          </CharString>
          <CharString index="74">
            -92 3 -38 14 42 vvcurveto
            42 37 14 38 vhcurveto
            return
          </CharString>
          <CharString index="75">
            -68 callsubr
            93 761 rmoveto
            144 80 -657 -80 417 -98 hlineto
            1 -12 -12 1 -11 hhcurveto
            hintmask 1101110101000000
            79 callgsubr
            117 hlineto
            90 5 callgsubr
            -117 152 rlineto
            411 callsubr
            -55 52 -92 -35 -35 -8 -14 -27 vhcurveto
            -75 vlineto
            13 19 33 11 30 hhcurveto
            42 26 -24 -32 -52 -50 -28 -63 -93 -64 64 85 94 79 56 115 hvcurveto
            hintmask 1011110110000000
            33 34 -4 -6 34 hvcurveto
            endchar
          </CharString>
          <CharString index="76">
            650 rmoveto
            return
          </CharString>
          <CharString index="77">
            96 147 96 return
          </CharString>
          <CharString index="78">
            -107 -210 -9 -30 0 vvcurveto
            0 -10 30 -103 210 vhcurveto
            -48 99 rlineto
            -118 hlineto
            228 -423 rlineto
            -251 103 251 vlineto
            endchar
          </CharString>
          <CharString index="79">
            106 callsubr
            hintmask 11011100
            -59 callsubr
            hintmask 11101100
            8 callsubr
            return
          </CharString>
          <CharString index="80">
            275 callgsubr
            33 9 28 15 21 hvcurveto
            476 281 rmoveto
            return
          </CharString>
          <CharString index="81">
            5 -15 -17 3 -19 hhcurveto
            -75 -52 94 callgsubr
            return
          </CharString>
          <CharString index="82">
            -135 -162 rlineto
            97 hlineto
            return
          </CharString>
          <CharString index="83">
            13 11 1 1 9 return
          </CharString>
          <CharString index="84">
            rmoveto
            -74 -54 -49 -81 -83 -55 49 75 85 69 34 68 vhcurveto
            81 -1 55 -39 -80 vvcurveto
            172 308 rmoveto
            80 -616 -80 281 -111 vlineto
            -105 -9 -103 -61 -126 vvcurveto
            return
          </CharString>
          <CharString index="85">
            124 hlineto
            225 246 rlineto
            -246 97 return
          </CharString>
          <CharString index="86">
            72 callsubr
            -162 374 callsubr
            -23 49 callsubr
            return
          </CharString>
          <CharString index="87">
            hhcurveto
            -73 83 callgsubr
            return
          </CharString>
          <CharString index="88">
            -65 callgsubr
            133 vlineto
            endchar
          </CharString>
          <CharString index="89">
            96 -92 callsubr
          </CharString>
          <CharString index="90">
            157 callsubr
            23 -22 -42 30 -78 hhcurveto
            -92 hlineto
            -104 callsubr
            47 hlineto
            51 22 -16 -24 10 hvcurveto
            -7 98 callsubr
            return
          </CharString>
          <CharString index="91">
            -28 -25 -13 -36 -35 vvcurveto
            -71 50 -46 56 -6 vhcurveto
            return
          </CharString>
          <CharString index="92">
            -81 62 -53 76 17 19 4 return
          </CharString>
          <CharString index="93">
            85 callgsubr
            -114 -91 -73 -122 -98 62 -69 91 -13 hvcurveto
            return
          </CharString>
          <CharString index="94">
            169 callgsubr
            125 callgsubr
            return
          </CharString>
          <CharString index="95">
            22 19 -3 -6 18 return
          </CharString>
          <CharString index="96">
            -22 callsubr
            -52 callsubr
            vlineto
            endchar
          </CharString>
          <CharString index="97">
            78 93 -24 callgsubr
            return
          </CharString>
          <CharString index="98">
            -12 callgsubr
            -67 return
          </CharString>
          <CharString index="99">
            -59 -41 -27 -62 -66 vvcurveto
            -154 142 -92 161 31 22 0 8 37 vhcurveto
            77 vlineto
            -7 -26 -29 -2 -28 hhcurveto
            -133 -80 76 90 79 57 68 124 37 30 -6 -11 24 hvcurveto
            -118 -55 rlineto
            -37 -17 -18 -22 -30 vvcurveto
            -45 49 -49 25 -19 vhcurveto
            63 29 rlineto
            -24 28 -16 29 18 vvcurveto
            14 7 8 14 6 vhcurveto
            114 52 rlineto
            8 -16 4 -16 -18 vvcurveto
            -28 -5 -24 -6 -17 vhcurveto
            90 hlineto
            6 16 4 31 29 vvcurveto
            100 -80 92 -166 vhcurveto
            return
          </CharString>
          <CharString index="100">
            vvcurveto
            35 callsubr
            return
          </CharString>
          <CharString index="101">
            -56 callsubr
            -68 -63 -40 -126 -34 vhcurveto
            20 -29 -38 18 -79 hhcurveto
            -110 hlineto
            -104 callsubr
            80 hlineto
            36 27 -8 -16 17 hvcurveto
            -140 34 111 -58 124 hhcurveto
            return
          </CharString>
          <CharString index="102">
            rmoveto
            88 hlineto
            89 46 -43 -80 -71 -41 -52 -89 hvcurveto
            -93 hlineto
            247 -342 rmoveto
            123 hlineto
            -176 272 81 29 50 67 2 96 rlinecurve
            127 -85 83 -157 vhcurveto
            -188 -674 103 256 89 hlineto
            endchar
          </CharString>
          <CharString index="103">
            -74 -56 -65 -83 22 callsubr
            -25 3 -23 hhcurveto
            return
          </CharString>
          <CharString index="104">
            213 -190 hlineto
            -50 callgsubr
            return
          </CharString>
          <CharString index="105">
            -12 callsubr
            vhcurveto
            return
          </CharString>
          <CharString index="106">
            -115 -375 -81 vlineto
            14 callgsubr
            return
          </CharString>
          <CharString index="107">
            rmoveto
            -98 -507 98 270 hlineto
            80 47 72 70 16 15 -2 -7 16 vhcurveto
            96 vlineto
            2 -11 -10 1 -10 hhcurveto
            -68 -43 -38 -56 -22 hvcurveto
            endchar
          </CharString>
          <CharString index="108">
            41 hlineto
            -43 -36 -21 -53 -64 vvcurveto
            -137 90 -87 128 13 12 1 1 8 vhcurveto
            84 163 callgsubr
            -1 -6 hhcurveto
            -86 -46 58 85 98 return
          </CharString>
          <CharString index="109">
            27 callsubr
            77 -117 rlineto
            return
          </CharString>
          <CharString index="110">
            hstemhm
            41 97 205 97 return
          </CharString>
          <CharString index="111">
            63 47 42 57 60 41 -46 -61 -75 145 callgsubr
            0 90 callsubr
            7 9 -1 8 hhcurveto
            110 94 68 128 105 -70 79 -112 -49 -41 -17 -29 -29 hvcurveto
            126 vlineto
            endchar
          </CharString>
          <CharString index="112">
            101 callgsubr
            122 hlineto
            return
          </CharString>
          <CharString index="113">
            -19 callgsubr
            -319 -80 150 hlineto
            -36 -19 -21 -34 -43 vvcurveto
            return
          </CharString>
          <CharString index="114">
            35 25 26 34 34 -25 26 -35 -35 -26 -26 -34 return
          </CharString>
          <CharString index="115">
            36 37 -41 53 hhcurveto
            47 40 27 47 22 hvcurveto
            return
          </CharString>
          <CharString index="116">
            208 -272 -72 callsubr
            -211 274 rlineto
            1 9 0 1 2 hvcurveto
            93 7 60 57 94 vvcurveto
            137 101 80 -436 -80 239 -129 vlineto
            -58 -33 -33 -80 vhcurveto
            -70 hlineto
            endchar
          </CharString>
          <CharString index="117">
            256 callsubr
            rcurveline
            -98 callgsubr
            return
          </CharString>
          <CharString index="118">
            -58 callsubr
            113 callsubr
            hvcurveto
            return
          </CharString>
          <CharString index="119">
            -59 -41 rlineto
            -40 -28 -16 -25 -29 vvcurveto
            -48 41 -41 44 -25 vhcurveto
            58 36 rlineto
            -18 20 -21 25 25 vvcurveto
            14 7 14 14 11 vhcurveto
            return
          </CharString>
          <CharString index="120">
            rmoveto
            213 -174 hlineto
            -83 100 callgsubr
            34 86 vhcurveto
            310 182 rmoveto
            153 80 -655 447 callgsubr
            hlineto
            104 callgsubr
            307 vlineto
            64 48 41 61 53 38 -32 -48 20 vhcurveto
            74 53 rlineto
            62 -32 -56 43 -85 56 callgsubr
            endchar
          </CharString>
          <CharString index="121">
            vvcurveto
            -62 40 -50 87 33 30 7 14 24 vhcurveto
            72 vlineto
            -13 -18 -28 -11 -28 hhcurveto
            -35 -23 17 34 return
          </CharString>
          <CharString index="122">
            vlineto
            -81 callgsubr
            return
          </CharString>
          <CharString index="123">
            80 -72 79 hstemhm
            42 99 -42 93 162 92 -82 95 return
          </CharString>
          <CharString index="124">
            159 0 87 207 84 208 88 hstem
            142 104 342 105 vstem
            246 87 rmoveto
            207 164 84 -164 208 103 vlineto
            148 91 -107 -135 -142 -74 -115 -162 hvcurveto
            -210 587 rmoveto
            -296 -80 -84 80 -294 211 vlineto
            218 122 150 194 192 -141 138 -201 hvcurveto
            endchar
          </CharString>
          <CharString index="125">
            -87 callsubr
            -114 -91 -73 -122 return
          </CharString>
          <CharString index="126">
            hhcurveto
            -78 -47 34 51 54 46 31 75 hvcurveto
            56 81 -48 hlineto
            return
          </CharString>
          <CharString index="127">
            451 188 rmoveto
            -188 75 callsubr
            80 -683 6 callgsubr
            107 253 rmoveto
            -72 -54 43 66 -19 hvcurveto
            76 24 68 45 94 vvcurveto
            37 -10 32 -14 21 vhcurveto
            170 -223 hlineto
            -89 -59 -50 -86 vhcurveto
            return
          </CharString>
          <CharString index="128">
            -157 vlineto
            -64 -30 -32 -49 -43 17 -35 13 -24 hvcurveto
            79 hlineto
            -6 24 -5 24 20 vvcurveto
            29 9 11 24 vhcurveto
            120 return
          </CharString>
          <CharString index="129">
            32 callgsubr
            vhcurveto
            85 vlineto
            4 -18 return
          </CharString>
          <CharString index="130">
            -24 callsubr
            hvcurveto
            243 callsubr
            return
          </CharString>
          <CharString index="131">
            287 119 rmoveto
            347 callsubr
            -676 207 callsubr
            12 84 rmoveto
            -75 -31 callgsubr
            226 callsubr
            170 -228 hlineto
            -23 callgsubr
            vhcurveto
            return
          </CharString>
          <CharString index="132">
            416 209 43 callsubr
          </CharString>
          <CharString index="133">
            467 -270 hlineto
            -1 2 rlineto
            159 callsubr
            -198 184 rlineto
            18 callgsubr
            -79 100 -11 hvcurveto
            -163 -151 446 callsubr
            235 218 rlineto
            -153 96 -84 callgsubr
          </CharString>
          <CharString index="134">
            hhcurveto
            -25 -23 -4 -2 -12 hvcurveto
            -83 vlineto
            28 callsubr
            return
          </CharString>
          <CharString index="135">
            3 9 22 5 23 hhcurveto
            38 25 -14 -36 24 hvcurveto
            return
          </CharString>
          <CharString index="136">
            hhcurveto
            -65 callgsubr
            return
          </CharString>
          <CharString index="137">
            rmoveto
            -34 26 -26 34 35 26 26 34 34 -26 26 -35 -34 -26 -26 -34 vhcurveto
            -221 hmoveto
            -34 25 -26 36 34 26 26 34 34 -26 26 -34 -36 -25 -26 -34 vhcurveto
            return
          </CharString>
          <CharString index="138">
            396 rmoveto
            -39 callsubr
            return
          </CharString>
          <CharString index="139">
            -126 96 -70 106 68 53 26 40 33 return
          </CharString>
          <CharString index="140">
            vstem
            409 570 rmoveto
            80 -433 6 callgsubr
            319 296 -46 65 rlineto
            -75 -51 -51 -33 -64 hhcurveto
            -72 -54 43 66 -19 hvcurveto
            76 24 68 45 94 vvcurveto
            37 -10 32 -14 21 vhcurveto
            return
          </CharString>
          <CharString index="141">
            -79 callsubr
            -44 callgsubr
            return
          </CharString>
          <CharString index="142">
            50 callgsubr
            vhcurveto
            79 vlineto
            -2 -11 -11 0 -9 hhcurveto
            -117 -51 80 101 return
          </CharString>
          <CharString index="143">
            59 callsubr
            -132 -91 -89 -122 return
          </CharString>
          <CharString index="144">
            -17 1 rlineto
            -67 3 -33 10 36 vvcurveto
            37 33 15 51 vhcurveto
            169 2 hlineto
            144 return
          </CharString>
          <CharString index="145">
            -79 callgsubr
            endchar
          </CharString>
          <CharString index="146">
            vstem
            324 475 rmoveto
            385 callgsubr
            -114 80 -69 95 -8 hvcurveto
            -166 -159 374 callgsubr
            305 293 -52 65 rlineto
            -77 -51 -53 -48 -74 hhcurveto
            32 callgsubr
            hvcurveto
            65 180 rmoveto
            80 -413 -80 vlineto
            return
          </CharString>
          <CharString index="147">
            vvcurveto
            -75 callsubr
            return
          </CharString>
          <CharString index="148">
            397 -90 -95 hlineto
            -151 -81 -89 -117 -102 64 -82 107 -16 hvcurveto
            -135 -130 rlineto
            125 hlineto
            return
          </CharString>
          <CharString index="149">
            12 1 rlineto
            84 8 26 48 91 vvcurveto
            115 324 83 callsubr
            -843 -80 215 -99 hlineto
            396 callsubr
            104 -98 158 -11 -199 -157 rcurveline
            144 hlineto
            151 118 92 69 55 54 rrcurveto
            -132 -67 callgsubr
          </CharString>
          <CharString index="150">
            rmoveto
            -650 97 -62 callsubr
          </CharString>
          <CharString index="151">
            -127 -92 -51 -85 -76 -56 37 71 -19 vhcurveto
            24 callgsubr
            return
          </CharString>
          <CharString index="152">
            350 callgsubr
            120 -162 rlineto
            84 hlineto
            return
          </CharString>
          <CharString index="153">
            12 1 rlineto
            84 8 26 48 91 vvcurveto
            115 315 80 -626 -80 215 -99 vlineto
            396 callsubr
            103 -99 163 -10 -199 -157 rcurveline
            145 hlineto
            266 212 rlineto
            61 49 55 64 94 vvcurveto
            106 -71 79 -127 -91 -72 -62 -85 vhcurveto
            return
          </CharString>
          <CharString index="154">
            rmoveto
            -457 -85 335 hlineto
            -340 -508 rlineto
            -81 476 85 -355 vlineto
            341 510 rlineto
            return
          </CharString>
          <CharString index="155">
            rmoveto
            -353 -82 237 hlineto
            -246 -350 rlineto
            -75 375 83 -262 vlineto
            249 354 rlineto
            return
          </CharString>
          <CharString index="156">
            -29 17 callgsubr
            return
          </CharString>
          <CharString index="157">
            350 callgsubr
            -95 -162 rlineto
            84 hlineto
            return
          </CharString>
          <CharString index="158">
            vstem
            154 570 rmoveto
            164 -211 hlineto
            -67 -29 -29 -54 -57 -24 35 61 vhcurveto
            260 211 rmoveto
            108 80 -556 -80 92 -206 hlineto
            -124 60 -59 115 116 65 64 119 vhcurveto
            183 -42 rmoveto
            -405 -345 rlineto
            141 hlineto
            301 258 rlineto
            return
          </CharString>
          <CharString index="159">
            vstem
            442 -31 callsubr
            -466 -80 466 hlineto
            51 -257 rmoveto
            -74 -43 -72 -64 -82 hhcurveto
            123 callsubr
            hvcurveto
            154 callsubr
            -91 70 -60 89 -7 vhcurveto
            -164 -146 374 callgsubr
            322 283 rlineto
            return
          </CharString>
          <CharString index="160">
            rmoveto
            -3 callsubr
            return
          </CharString>
          <CharString index="161">
            rmoveto
            -141 168 rlineto
            198 callgsubr
            return
          </CharString>
          <CharString index="162">
            159 -159 271 -250 -21 return
          </CharString>
          <CharString index="163">
            rlineto
            19 -26 -22 9 -27 hhcurveto
            -61 -35 -76 -66 -7 hvcurveto
            55 -35 rlineto
            37 14 24 34 31 hhcurveto
            12 12 -5 -9 13 hvcurveto
            124 -85 -209 -39 rlineto
            -54 -10 -24 -30 -38 vvcurveto
            -47 34 -53 19 -22 vhcurveto
            65 15 rlineto
            -7 20 -9 23 22 vvcurveto
            26 10 19 32 7 vhcurveto
            return
          </CharString>
          <CharString index="164">
            -74 -56 -65 -84 22 callsubr
            -24 3 -24 hhcurveto
            -122 -83 -85 -112 return
          </CharString>
          <CharString index="165">
            vstem
            322 -31 callsubr
            -346 -80 346 hlineto
            125 -185 rmoveto
            69 -335 48 callgsubr
            209 hlineto
            -317 -314 rlineto
            119 hlineto
            303 304 rlineto
            return
          </CharString>
          <CharString index="166">
            159 callsubr
            41 callgsubr
            return
          </CharString>
          <CharString index="167">
            56 callgsubr
            165 callsubr
            return
          </CharString>
          <CharString index="168">
            301 vlineto
            -2 callgsubr
            return
          </CharString>
          <CharString index="169">
            -60 callgsubr
            174 83 hstem
            87 return
          </CharString>
          <CharString index="170">
            vlineto
            110 callgsubr
            403 callsubr
            hlineto
            endchar
          </CharString>
          <CharString index="171">
            -429 248 rmoveto
            49 callgsubr
            195 -44 hlineto
            -351 -313 rlineto
            137 hlineto
            214 193 rlineto
            -153 348 callsubr
          </CharString>
          <CharString index="172">
            30 48 54 24 68 hhcurveto
            59 50 -27 -28 36 hvcurveto
            -168 -55 rlineto
            -48 -16 -23 -29 -38 vvcurveto
            -41 32 -47 34 -30 vhcurveto
            67 23 rlineto
            -16 21 -15 27 23 vvcurveto
            19 10 15 21 9 vhcurveto
            138 53 rlineto
            -250 -18 callsubr
          </CharString>
          <CharString index="173">
            -128 -72 callsubr
            return
          </CharString>
          <CharString index="174">
            vstem
            400 -31 callsubr
            -424 -80 424 hlineto
            61 -311 rmoveto
            137 -27 -98 77 -123 7 callgsubr
            51 -39 32 -54 -291 -178 rcurveline
            51 -73 337 209 rlineto
            return
          </CharString>
          <CharString index="175">
            vstem
            39 220 rmoveto
            105 callgsubr
            154 80 -426 317 callsubr
            418 39 rmoveto
            -416 -361 446 callsubr
            328 280 rlineto
            return
          </CharString>
          <CharString index="176">
            -149 -72 callsubr
            91 128 89 66 callsubr
            -121 156 rlineto
            114 34 76 90 120 vvcurveto
            return
          </CharString>
          <CharString index="177">
            57 42 20 32 29 return
          </CharString>
          <CharString index="178">
            -67 3 -33 10 36 vvcurveto
            37 32 16 52 vhcurveto
            168 1 hlineto
            5 -1 rlineto
            145 return
          </CharString>
          <CharString index="179">
            hhcurveto
            34 12 -20 -40 hvcurveto
            return
          </CharString>
          <CharString index="180">
            215 callsubr
            156 -276 vlineto
            -363 -314 446 callsubr
            230 195 rlineto
            -175 219 callsubr
          </CharString>
          <CharString index="181">
            21 -21 64 82 106 81 -3 84 154 84 -82 80 return
          </CharString>
          <CharString index="182">
            97 -95 callgsubr
            return
          </CharString>
          <CharString index="183">
            68 -27 52 -49 30 vhcurveto
            107 vlineto
            endchar
          </CharString>
          <CharString index="184">
            319 callgsubr
            34 26 25 34 33 -26 27 -34 hvcurveto
            -544 240 rmoveto
            -80 337 vlineto
            return
          </CharString>
          <CharString index="185" raw="1">
            05291d0b   
          </CharString>
          <CharString index="186">
            -59 -25 19 67 hvcurveto
            -97 hlineto
            -139 83 -27 89 vhcurveto
            48 hlineto
            return
          </CharString>
          <CharString index="187">
            394 callsubr
            hlineto
            -141 66 -60 117 return
          </CharString>
          <CharString index="188">
            -52 -5 82 136 77 142 81 return
          </CharString>
          <CharString index="189">
            -15 callsubr
            6 16 return
          </CharString>
          <CharString index="190">
            vlineto
            208 80 rmoveto
            return
          </CharString>
          <CharString index="191">
            vvcurveto
            -141 106 -83 159 53 62 16 17 33 vhcurveto
            88 vlineto
            -19 -30 -60 -20 -53 hhcurveto
            -100 -71 48 91 hvcurveto
            return
          </CharString>
          <CharString index="192">
            -98 callsubr
            -29 4 -28 hhcurveto
            -133 -90 -89 -122 return
          </CharString>
          <CharString index="193">
            410 382 rmoveto
            -65 -36 -47 -49 -62 hhcurveto
            -64 -33 34 86 hvcurveto
            182 188 80 -380 447 callgsubr
            vlineto
            -123 52 -61 89 -11 vhcurveto
            -180 -196 rlineto
            124 hlineto
            301 325 rlineto
            return
          </CharString>
          <CharString index="194">
            137 callsubr
            -94 -63 64 85 return
          </CharString>
          <CharString index="195">
            148 callgsubr
            -24 hhcurveto
            -122 -83 -85 -112 -127 100 -69 116 return
          </CharString>
          <CharString index="196">
            75 callsubr
            hlineto
            endchar
          </CharString>
          <CharString index="197">
            1 -6 vhcurveto
            -80 vlineto
            -1 return
          </CharString>
          <CharString index="198">
            -922 -80 230 368 callsubr
            -68 -73 hlineto
            189 379 callsubr
            35 50 -4 72 hhcurveto
            110 8 15 hlineto
            76 2 42 46 66 hhcurveto
            54 return
          </CharString>
          <CharString index="199">
            53 -34 -54 31 -65 hhcurveto
            -126 -92 -102 -161 -135 76 -123 140 71 51 32 52 33 hvcurveto
            return
          </CharString>
          <CharString index="200">
            198 213 vlineto
            return
          </CharString>
          <CharString index="201">
            vhcurveto
            68 69 rlineto
            33 -33 -48 19 -56 29 callsubr
            endchar
          </CharString>
          <CharString index="202">
            299 callgsubr
            -97 -57 -63 -72 -30 7 -19 5 -16 vhcurveto
            94 hlineto
            -5 13 -8 15 28 vvcurveto
            34 18 30 43 41 19 -31 -38 -79 -87 -41 -170 -39 vhcurveto
            13 -142 88 -80 105 -19 rrcurveto
            return
          </CharString>
          <CharString index="203">
            274 79 rmoveto
            -75 -57 68 102 120 61 59 74 57 78 -43 -128 -129 -68 -49 -70 hvcurveto
            return
          </CharString>
          <CharString index="204">
            -78 -12 -51 -45 -74 vvcurveto
            -100 87 -51 93 -1 vhcurveto
            -154 -136 rlineto
            return
          </CharString>
          <CharString index="205">
            vlineto
            129 callsubr
            return
          </CharString>
          <CharString index="206">
            80 -68 78 88 80 return
          </CharString>
          <CharString index="207">
            82 -37 45 -85 -28 -29 -7 -10 -18 vhcurveto
            -78 vlineto
            8 14 21 6 21 hhcurveto
            33 13 -20 -40 hvcurveto
            -117 vlineto
            -27 -6 -17 -22 49 callsubr
            134 return
          </CharString>
          <CharString index="208">
            -56 callgsubr
            endchar
          </CharString>
          <CharString index="209">
            -59 -23 -38 -50 -70 vvcurveto
            -121 114 -57 130 69 69 15 20 43 vhcurveto
            88 vlineto
            -21 -38 -76 -20 -61 hhcurveto
            -92 -58 32 69 67 65 32 85 hvcurveto
            140 14 hlineto
            35 3 rlineto
            return
          </CharString>
          <CharString index="210">
            148 callsubr
            -374 89 callsubr
          </CharString>
          <CharString index="211">
            -126 463 rmoveto
            230 -143 rlineto
            -23 -18 -29 -9 -38 hhcurveto
            -41 hlineto
            -67 -37 31 79 hvcurveto
            return
          </CharString>
          <CharString index="212">
            -79 -8 -57 -44 -79 vvcurveto
            -95 85 -66 130 return
          </CharString>
          <CharString index="213">
            rmoveto
            -23 -11 -17 -20 -30 hhcurveto
            return
          </CharString>
          <CharString index="214">
            102 callgsubr
            147 97 return
          </CharString>
          <CharString index="215">
            446 callgsubr
            rlineto
            -22 callsubr
            return
          </CharString>
          <CharString index="216">
            -345 -303 rlineto
            134 hlineto
            211 186 rlineto
            -146 95 return
          </CharString>
          <CharString index="217">
            -80 136 130 callsubr
            56 -36 64 -4 vhcurveto
            return
          </CharString>
          <CharString index="218">
            rmoveto
            -17 -26 -32 155 callgsubr
            476 281 rmoveto
            return
          </CharString>
          <CharString index="219">
            rmoveto
            48 29 -41 -40 -46 -35 -39 -39 -24 hvcurveto
            -60 36 -22 38 38 vvcurveto
            43 30 35 49 vhcurveto
            return
          </CharString>
          <CharString index="220">
            96 57 50 109 return
          </CharString>
          <CharString index="221">
            -412 809 rmoveto
            28 callsubr
            82 -124 rlineto
            105 hlineto
            -108 165 rlineto
            63 -41 -48 27 -71 hhcurveto
            -25 -23 -4 -2 -12 hvcurveto
            return
          </CharString>
          <CharString index="222">
            3 -7 86 349 86 hstem
            69 98 271 101 vstem
            303 79 rmoveto
            -61 -75 48 128 130 74 43 66 74 57 -64 -108 -116 -59 -61 -76 hvcurveto
            -136 return
          </CharString>
          <CharString index="223">
            69 52 26 40 33 hvcurveto
            -155 -18 callsubr
          </CharString>
          <CharString index="224">
            333 rmoveto
            -95 -81 -71 -108 158 callgsubr
            vhcurveto
            56 83 -46 hlineto
            return
          </CharString>
          <CharString index="225">
            77 102 80 65 80 hstemhm
            65 95 -84 98 161 96 -57 96 return
          </CharString>
          <CharString index="226">
            243 77 111 80 hstem
            49 98 110 96 67 99 vstem
            return
          </CharString>
          <CharString index="227">
            136 73 90 79 96 80 hstemhm
            47 421 callgsubr
            93 return
          </CharString>
          <CharString index="228">
            21 -21 431 76 125 84 hstem
            111 98 return
          </CharString>
          <CharString index="229">
            -35 26 -26 35 36 27 26 421 callsubr
            return
          </CharString>
          <CharString index="230">
            -65 -46 32 61 59 47 52 143 return
          </CharString>
          <CharString index="231">
            -374 75 callsubr
            return
          </CharString>
          <CharString index="232">
            75 callsubr
            80 hlineto
            return
          </CharString>
          <CharString index="233">
            -231 251 rlineto
            return
          </CharString>
          <CharString index="234">
            -61 -46 -42 -53 -65 -40 44 60 71 47 42 301 callsubr
            -92 -72 -121 -89 50 -65 78 -21 hvcurveto
            return
          </CharString>
          <CharString index="235">
            52 57 19 34 26 hvcurveto
            -131 95 vlineto
            return
          </CharString>
          <CharString index="236">
            188 175 callgsubr
            return
          </CharString>
          <CharString index="237">
            124 callgsubr
            -70 return
          </CharString>
          <CharString index="238">
            -156 -2 -107 -89 -137 vvcurveto
            return
          </CharString>
          <CharString index="239">
            372 rmoveto
            -9 -1 -8 -1 -9 vhcurveto
            -223 224 rlineto
            225 hlineto
            -241 -67 rmoveto
            214 -211 rlineto
            -29 -24 -37 -16 -36 hhcurveto
            -68 -49 38 87 hvcurveto
            return
          </CharString>
          <CharString index="240">
            79 callsubr
            55 15 -33 -51 hvcurveto
            return
          </CharString>
          <CharString index="241">
            259 72 rmoveto
            -355 vlineto
            -71 18 -58 18 -45 18 rrcurveto
            48 35 40 52 63 vvcurveto
            return
          </CharString>
          <CharString index="242">
            -81 vlineto
            -101 callgsubr
            return
          </CharString>
          <CharString index="243">
            80 -68 78 88 429 callgsubr
            return
          </CharString>
          <CharString index="244">
            13 18 33 11 31 hhcurveto
            42 26 -24 -32 -52 -51 -28 -62 return
          </CharString>
          <CharString index="245">
            98 -92 callsubr
          </CharString>
          <CharString index="246">
            79 81 265 callsubr
            return
          </CharString>
          <CharString index="247">
            -81 vlineto
            104 62 -43 -76 -70 -49 -34 -72 -41 -36 11 16 -32 hvcurveto
            -86 vlineto
            -14 35 44 -9 44 hhcurveto
            116 84 71 104 62 -26 43 -43 25 hvcurveto
            return
          </CharString>
          <CharString index="248">
            453 213 callgsubr
            108 80 -585 -80 381 -79 -166 vlineto
            return
          </CharString>
          <CharString index="249">
            265 callgsubr
            32 119 47 96 53 91 return
          </CharString>
          <CharString index="250">
            hhcurveto
            49 36 -16 -32 -53 -67 -27 -79 -15 hvcurveto
            return
          </CharString>
          <CharString index="251">
            134 -8 96 503 96 return
          </CharString>
          <CharString index="252">
            148 callsubr
            hlineto
            return
          </CharString>
          <CharString index="253">
            -44 -25 rlineto
            -42 -23 -15 -28 -29 vvcurveto
            -50 46 -45 39 -22 vhcurveto
            59 36 rlineto
            -19 19 -22 24 25 vvcurveto
            14 6 14 13 10 vhcurveto
            157 118 return
          </CharString>
          <CharString index="254">
            60 45 43 54 return
          </CharString>
          <CharString index="255">
            vvcurveto
            -54 callsubr
            185 return
          </CharString>
          <CharString index="256">
            -66 -6 -7 1 1 -5 vhcurveto
            -80 vlineto
            -2 6 8 0 9 hhcurveto
            114 91 73 122 109 -76 76 -113 -65 callgsubr
            return
          </CharString>
          <CharString index="257">
            rmoveto
            -33 24 -24 32 33 25 24 33 31 -25 26 -33 -32 -24 -26 -31 vhcurveto
            return
          </CharString>
          <CharString index="258">
            411 callgsubr
            -27 -35 -56 -22 vhcurveto
            38 -24 -46 31 -75 hhcurveto
            return
          </CharString>
          <CharString index="259">
            vvcurveto
            57 42 42 51 26 416 callsubr
            return
          </CharString>
          <CharString index="260">
            -59 -65 -105 hvcurveto
            -39 -81 -76 81 308 callsubr
            return
          </CharString>
          <CharString index="261">
            282 callgsubr
            -42 -22 -30 -39 -59 vvcurveto
            return
          </CharString>
          <CharString index="262">
            -66 -78 hlineto
            -101 -75 -44 -92 -99 85 -24 103 -4 hvcurveto
            return
          </CharString>
          <CharString index="263">
            393 callsubr
            254 callgsubr
            return
          </CharString>
          <CharString index="264">
            -130 vlineto
            -12 callgsubr
            return
          </CharString>
          <CharString index="265">
            32 24 22 34 53 vvcurveto
            return
          </CharString>
          <CharString index="266">
            -30 -10 -29 -17 -23 vhcurveto
            return
          </CharString>
          <CharString index="267">
            60 47 43 55 33 39 -11 -42 20 vhcurveto
            -36 -73 hlineto
            -99 callgsubr
            return
          </CharString>
          <CharString index="268">
            98 271 hlineto
            -54 34 53 -30 67 hhcurveto
            134 84 113 151 146 -80 111 -136 -72 -52 -33 -52 -32 hvcurveto
            endchar
          </CharString>
          <CharString index="269">
            -64 -41 47 61 return
          </CharString>
          <CharString index="270">
            253 callsubr
            558 162 hstemhm
            63 99 222 98 hintmask 10111000
            return
          </CharString>
          <CharString index="271">
            8 callsubr
            endchar
          </CharString>
          <CharString index="272">
            -310 127 rmoveto
            213 -190 hlineto
            return
          </CharString>
          <CharString index="273">
            hlineto
            -83 callsubr
            return
          </CharString>
          <CharString index="274">
            79 166 169 callsubr
            return
          </CharString>
          <CharString index="275">
            81 hmoveto
            102 674 -102 hlineto
            return
          </CharString>
          <CharString index="276">
            80 hstemhm
            26 97 return
          </CharString>
          <CharString index="277">
            -62 -36 rlineto
            -34 -21 -15 -23 -29 vvcurveto
            -51 50 -48 43 -24 vhcurveto
            60 39 rlineto
            -25 25 -25 30 25 vvcurveto
            13 6 12 14 9 vhcurveto
            return
          </CharString>
          <CharString index="278">
            98 163 98 vstem
            372 507 rmoveto
            -163 38 hlineto
            64 32 23 47 33 32 -9 -11 28 vhcurveto
            -6 -20 -3 -22 -24 vvcurveto
            return
          </CharString>
          <CharString index="279">
            hhcurveto
            69 52 26 40 33 hvcurveto
            -155 -67 callgsubr
          </CharString>
          <CharString index="280">
            rmoveto
            140 80 -573 -80 337 -72 -90 hlineto
            return
          </CharString>
          <CharString index="281">
            -105 95 234 -91 vlineto
            return
          </CharString>
          <CharString index="282">
            286 callsubr
            49 96 return
          </CharString>
          <CharString index="283">
            207 80 rmoveto
            return
          </CharString>
          <CharString index="284">
            -72 callsubr
            hintmask 10111110
            -94 callsubr
            163 -259 -32 callgsubr
            hlineto
            endchar
          </CharString>
          <CharString index="285">
            233 callgsubr
            -208 -279 vlineto
            -127 -92 -54 -85 -76 -56 33 71 -19 vhcurveto
            24 callgsubr
            return
          </CharString>
          <CharString index="286">
            -173 -82 -100 -131 -127 80 -102 130 -3 hvcurveto
            9 hlineto
            return
          </CharString>
          <CharString index="287">
            200 callsubr
            44 162 hstem
            41 102 277 103 vstem
            return
          </CharString>
          <CharString index="288">
            96 163 96 -41 return
          </CharString>
          <CharString index="289">
            rlineto
            -35 -23 -14 -25 -27 vvcurveto
            -52 53 -45 40 -21 vhcurveto
            60 38 rlineto
            -24 21 -26 23 27 vvcurveto
            14 6 12 13 8 vhcurveto
            return
          </CharString>
          <CharString index="290">
            -68 vvcurveto
            -155 135 -91 168 31 33 2 8 36 vhcurveto
            77 vlineto
            -8 -25 -40 -4 -28 hhcurveto
            -143 -71 76 90 return
          </CharString>
          <CharString index="291">
            rlineto
            -35 -21 -16 -23 -29 vvcurveto
            -52 56 -47 40 -22 vhcurveto
            58 38 rlineto
            -22 20 -29 28 26 vvcurveto
            12 6 11 12 8 vhcurveto
            return
          </CharString>
          <CharString index="292">
            -45 -27 -25 -44 -55 vvcurveto
            -91 76 -63 99 60 52 26 40 31 vhcurveto
            -105 95 486 -93 vlineto
            -68 -5 -48 -44 -73 hhcurveto
            return
          </CharString>
          <CharString index="293">
            rmoveto
            583 -103 -674 379 91 vlineto
            endchar
          </CharString>
          <CharString index="294">
            81 vlineto
            -14 -55 -39 -4 -35 hhcurveto
            return
          </CharString>
          <CharString index="295">
            -55 hlineto
            1 -11 -12 1 -12 hhcurveto
            -100 -60 -51 -67 -63 55 -32 63 -4 hvcurveto
            hintmask 1111110110000000
            -67 -2 -58 -38 -65 vvcurveto
            return
          </CharString>
          <CharString index="296">
            32 vlineto
            64 34 30 52 53 37 -31 -63 vhcurveto
            -89 -109 -80 95 callgsubr
            96 233 callgsubr
            -113 return
          </CharString>
          <CharString index="297">
            -35 -22 -15 -24 -28 vvcurveto
            -51 52 -48 42 -21 vhcurveto
            59 37 rlineto
            -24 20 -24 28 26 vvcurveto
            15 9 13 15 10 vhcurveto
            return
          </CharString>
          <CharString index="298">
            -35 -22 -15 -24 -28 vvcurveto
            -50 52 -48 42 -22 vhcurveto
            59 38 rlineto
            -24 20 -24 27 26 vvcurveto
            15 9 13 15 10 vhcurveto
            return
          </CharString>
          <CharString index="299">
            rmoveto
            -68 -41 -47 -66 -50 -45 29 33 -28 vhcurveto
            72 21 15 92 86 hhcurveto
            68 40 -45 -66 hvcurveto
            -417 -115 rmoveto
            return
          </CharString>
          <CharString index="300">
            5 callgsubr
            -119 return
          </CharString>
          <CharString index="301">
            265 callgsubr
            198 96 53 91 return
          </CharString>
          <CharString index="302">
            hstem
            73 99 vstem
            73 hmoveto
            99 return
          </CharString>
          <CharString index="303">
            7 139 callgsubr
            return
          </CharString>
          <CharString index="304">
            166 83 154 80 hstemhm
            return
          </CharString>
          <CharString index="305">
            -9 -36 hhcurveto
            -76 -54 52 78 return
          </CharString>
          <CharString index="306">
            207 391 callsubr
            return
          </CharString>
          <CharString index="307">
            -13 -9 83 357 83 return
          </CharString>
          <CharString index="308">
            82 -37 45 -86 return
          </CharString>
          <CharString index="309">
            231 rmoveto
            321 -130 hlineto
            -35 -8 -26 -24 -15 vhcurveto
            97 -32 -91 21 -53 29 callsubr
            return
          </CharString>
          <CharString index="310">
            -46 vvcurveto
            -88 80 -95 174 210 callsubr
            -118 -45 46 57 return
          </CharString>
          <CharString index="311">
            74 callgsubr
            174 99 callgsubr
            endchar
          </CharString>
          <CharString index="312">
            84 38 35 62 return
          </CharString>
          <CharString index="313">
            131 156 callgsubr
            22 4 8 hlineto
            34 12 -20 -40 hvcurveto
            -158 -232 vlineto
            return
          </CharString>
          <CharString index="314">
            164 callgsubr
            -162 20 103 -88 122 hhcurveto
            return
          </CharString>
          <CharString index="315">
            rmoveto
            -106 hlineto
            146 -162 -146 -162 rlineto
            106 hlineto
            return
          </CharString>
          <CharString index="316">
            85 vlineto
            -77 5 -45 56 85 vvcurveto
            113 callsubr
            vhcurveto
            return
          </CharString>
          <CharString index="317">
            40 36 3 13 59 vhcurveto
            187 callsubr
            return
          </CharString>
          <CharString index="318">
            303 rmoveto
            -107 -100 -59 -105 -62 -57 17 44 48 58 12 return
          </CharString>
          <CharString index="319">
            -24 313 callsubr
            return
          </CharString>
          <CharString index="320">
            329 rmoveto
            -201 85 -136 145 154 79 139 198 205 -87 130 -146 return
          </CharString>
          <CharString index="321">
            -80 130 -173 vlineto
            -26 -6 -18 -22 -29 vvcurveto
            -25 13 -31 15 -35 vhcurveto
            28 -63 rlineto
            84 131 return
          </CharString>
          <CharString index="322">
            -39 -16 -22 -39 -30 -28 14 0 vhcurveto
            -82 vlineto
            105 callgsubr
            return
          </CharString>
          <CharString index="323">
            -88 -235 95 108 hlineto
            -26 36 48 -15 51 hhcurveto
            102 72 69 87 97 -63 46 -131 5 hvcurveto
            return
          </CharString>
          <CharString index="324">
            -44 -72 hhcurveto
            -72 -49 46 82 77 54 47 84 hvcurveto
            endchar
          </CharString>
          <CharString index="325">
            hlineto
            4 -20 9 -22 11 -24 28 -62 rcurveline
            return
          </CharString>
          <CharString index="326">
            96 -62 callsubr
          </CharString>
          <CharString index="327">
            307 callgsubr
            hvcurveto
            return
          </CharString>
          <CharString index="328">
            97 213 97 return
          </CharString>
          <CharString index="329">
            -80 90 -198 15 callsubr
            return
          </CharString>
          <CharString index="330">
            -68 -45 16 40 33 26 24 60 33 39 -6 -12 34 hvcurveto
            135 123 vlineto
            176 callsubr
            return
          </CharString>
          <CharString index="331">
            rmoveto
            -290 -303 290 -103 -674 103 295 303 -295 103 674 vlineto
            endchar
          </CharString>
          <CharString index="332">
            rmoveto
            247 340 rlineto
            -125 hlineto
            -245 -341 255 -333 424 callgsubr
            endchar
          </CharString>
          <CharString index="333">
            hvcurveto
            -96 callgsubr
            -13 21 vhcurveto
            return
          </CharString>
          <CharString index="334">
            84 78 160 81 167 80 hstemhm
            62 98 -91 97 return
          </CharString>
          <CharString index="335">
            370 21 -21 514 150 return
          </CharString>
          <CharString index="336">
            -80 87 -237 -163 hlineto
            return
          </CharString>
          <CharString index="337">
            352 callgsubr
            -79 return
          </CharString>
          <CharString index="338">
            -127 -65 -43 -88 return
          </CharString>
          <CharString index="339">
            80 hstemhm
            259 94 return
          </CharString>
          <CharString index="340">
            208 80 230 80 hstemhm
            60 366 callgsubr
            hintmask 11110010
            301 52 rmoveto
            return
          </CharString>
          <CharString index="341">
            75 79 80 123 75 94 263 callsubr
            58 98 -74 98 146 97 -90 93 -40 98 return
          </CharString>
          <CharString index="342">
            -133 681 68 hstem
            70 304 vstem
            374 681 250 callsubr
            endchar
          </CharString>
          <CharString index="343">
            98 258 96 return
          </CharString>
          <CharString index="344">
            95 195 95 return
          </CharString>
          <CharString index="345">
            -21 92 78 -68 81 68 431 callgsubr
            68 93 143 96 return
          </CharString>
          <CharString index="346">
            427 callsubr
            vlineto
            hintmask 11110111
            -62 callsubr
          </CharString>
          <CharString index="347">
            rmoveto
            -106 hlineto
            -151 -162 151 -162 rlineto
            106 hlineto
            -146 162 rlineto
            endchar
          </CharString>
          <CharString index="348">
            17 callgsubr
            hlineto
            return
          </CharString>
          <CharString index="349">
            201 callsubr
            -15 -15 -2 -4 -14 vhcurveto
            1 vlineto
            return
          </CharString>
          <CharString index="350">
            82 163 callgsubr
            0 -6 hhcurveto
            -91 -41 59 89 return
          </CharString>
          <CharString index="351">
            134 184 -277 95 233 callgsubr
            return
          </CharString>
          <CharString index="352">
            -79 -8 -57 -45 -73 vvcurveto
            -84 66 -57 103 -12 vhcurveto
            return
          </CharString>
          <CharString index="353">
            -16 31 83 159 79 218 80 return
          </CharString>
          <CharString index="354">
            hstemhm
            244 97 -76 94 129 96 return
          </CharString>
          <CharString index="355">
            -130 hlineto
            -51 -17 -32 -61 -5 vhcurveto
            return
          </CharString>
          <CharString index="356">
            -26 21 -21 429 85 return
          </CharString>
          <CharString index="357">
            rmoveto
            68 -304 -68 vlineto
            return
          </CharString>
          <CharString index="358">
            vstem
            212 callsubr
            return
          </CharString>
          <CharString index="359">
            58 298 callsubr
            return
          </CharString>
          <CharString index="360">
            -26 -6 84 -57 -21 return
          </CharString>
          <CharString index="361">
            162 -60 60 hstemhm
            return
          </CharString>
          <CharString index="362">
            rlineto
            126 hlineto
            return
          </CharString>
          <CharString index="363">
            -205 190 return
          </CharString>
          <CharString index="364">
            21 -21 89 79 return
          </CharString>
          <CharString index="365">
            -182 vlineto
            32 -35 -57 32 -85 hhcurveto
            -51 -43 -12 -15 -33 hvcurveto
            511 225 rmoveto
            return
          </CharString>
          <CharString index="366">
            vvcurveto
            -102 64 -82 107 -16 vhcurveto
            -135 -130 rlineto
            125 hlineto
            184 177 rlineto
            return
          </CharString>
          <CharString index="367">
            -73 -7 -49 -47 -73 vvcurveto
            -108 106 -61 132 42 39 6 13 35 vhcurveto
            -89 vlineto
            return
          </CharString>
          <CharString index="368">
            rmoveto
            -29 21 -22 30 29 295 callsubr
            -29 -30 -21 -23 -29 vhcurveto
            endchar
          </CharString>
          <CharString index="369">
            95 -84 callgsubr
          </CharString>
          <CharString index="370">
            80 72 80 hstemhm
            return
          </CharString>
          <CharString index="371">
            -70 -47 -43 -65 return
          </CharString>
          <CharString index="372">
            80 hstemhm
            66 97 return
          </CharString>
          <CharString index="373">
            75 75 78 234 77 106 80 hstemhm
            46 98 -66 98 91 96 -34 93 29 99 return
          </CharString>
          <CharString index="374">
            381 391 rmoveto
            169 callgsubr
            87 vhcurveto
            186 213 vlineto
            return
          </CharString>
          <CharString index="375">
            -150 -2 -121 -75 -125 vvcurveto
            -138 125 -64 159 vhcurveto
            2 hlineto
            return
          </CharString>
          <CharString index="376">
            -92 callgsubr
            6 -47 13 -41 18 -34 return
          </CharString>
          <CharString index="377">
            80 117.5 79.5 -31 415 callsubr
            return
          </CharString>
          <CharString index="378">
            -88 64 -59 91 -11 vhcurveto
            -165 -146 rlineto
            131 hlineto
            249 219 rlineto
            return
          </CharString>
          <CharString index="379">
            -27 35 36 27 27 35 35 -27 27 -36 hvcurveto
            return
          </CharString>
          <CharString index="380">
            339 rmoveto
            -76 callgsubr
            return
          </CharString>
          <CharString index="381">
            -80 95 -198 vlineto
            -142 83 -61 118 return
          </CharString>
          <CharString index="382">
            2 8 9 365 callsubr
            return
          </CharString>
          <CharString index="383">
            362 callsubr
            189 96 return
          </CharString>
          <CharString index="384">
            79 -31 79 166 80 -80 85 hstemhm
            26 97 return
          </CharString>
          <CharString index="385">
            -126 101 -84 115 75 60 31 43 37 return
          </CharString>
          <CharString index="386">
            hstem
            73 103 328 103 vstem
            return
          </CharString>
          <CharString index="387">
            336 callsubr
            hvcurveto
            return
          </CharString>
          <CharString index="388">
            -133 636 162 hstem
            return
          </CharString>
          <CharString index="389">
            219 21 -21 400 107 return
          </CharString>
          <CharString index="390">
            79 166 80 hstem
            26 97 return
          </CharString>
          <CharString index="391">
            rmoveto
            -304 -68 304 hlineto
            return
          </CharString>
          <CharString index="392">
            59 46 52 143 return
          </CharString>
          <CharString index="393">
            82 70 80 hstemhm
            return
          </CharString>
          <CharString index="394">
            21 -21 61 82 return
          </CharString>
          <CharString index="395">
            rmoveto
            -261 38 hlineto
            64 30 23 46 54 45 -17 -21 45 vhcurveto
            85 vlineto
            22 return
          </CharString>
          <CharString index="396">
            -85 -68 -76 -112 -74 -46 34 51 54 46 31 75 vhcurveto
            56 81 -48 hlineto
            return
          </CharString>
          <CharString index="397">
            254 hlineto
            22 -21 18 -31 -34 vvcurveto
            -66 -38 -31 -79 vhcurveto
            -42 -82 44 hlineto
            return
          </CharString>
          <CharString index="398">
            rmoveto
            -77 -62 -43 -89 -87 -69 42 76 76 68 40 82 90 67 -39 -75 vhcurveto
            return
          </CharString>
          <CharString index="399">
            -107 -20 vlineto
            -109 -1 -82 -49 -38 -74 rrcurveto
            345 231 rmoveto
            106 80 return
          </CharString>
          <CharString index="400">
            -21 92 78 -68 81 209 -47 callgsubr
            return
          </CharString>
          <CharString index="401">
            144 37 93 64 112 vvcurveto
            return
          </CharString>
          <CharString index="402">
            23 22 29 29 -23 23 return
          </CharString>
          <CharString index="403">
            261 393 callgsubr
            return
          </CharString>
          <CharString index="404">
            570 rmoveto
            140 80 return
          </CharString>
          <CharString index="405">
            96 164 96 return
          </CharString>
          <CharString index="406">
            -249 198 return
          </CharString>
          <CharString index="407">
            -38 29 -29 38 37 30 29 38 37 -30 30 -37 -38 -29 -30 -37 vhcurveto
            return
          </CharString>
          <CharString index="408">
            80 callgsubr
            -114 return
          </CharString>
          <CharString index="409">
            81 callgsubr
            51 162 hstem
            31 598 vstem
            return
          </CharString>
          <CharString index="410">
            rlineto
            312 callgsubr
          </CharString>
          <CharString index="411">
            147 callsubr
            32 25 -12 -19 17 vhcurveto
            return
          </CharString>
          <CharString index="412">
            -21 323 79 168 80 -76 81 hstemhm
            return
          </CharString>
          <CharString index="413">
            -25 3 -23 hhcurveto
            -122 -83 -85 -112 return
          </CharString>
          <CharString index="414">
            21 -21 174 79 return
          </CharString>
          <CharString index="415">
            -431 98 431 return
          </CharString>
          <CharString index="416">
            -80 385 -65 -99 hlineto
            -103 -73 -43 -88 -96 90 -28 104 -4 hvcurveto
            return
          </CharString>
          <CharString index="417">
            342 callsubr
            49 96 return
          </CharString>
          <CharString index="418">
            294 callsubr
            299 callgsubr
            -97 -57 -63 -72 return
          </CharString>
          <CharString index="419">
            419 callsubr
            vhcurveto
            endchar
          </CharString>
          <CharString index="420">
            -31 callsubr
            -80 return
          </CharString>
          <CharString index="421">
            -203 299 callsubr
            46 84 352 76 hstem
            97 99 vstem
            return
          </CharString>
          <CharString index="422">
            26 6 22 8 15 8 rrcurveto
            88 vlineto
            -20 -33 -63 -19 -56 hhcurveto
            return
          </CharString>
          <CharString index="423">
            -71 5 -35 11 35 vvcurveto
            33 31 16 54 vhcurveto
            189 143 return
          </CharString>
          <CharString index="424">
            -80 176 366 callsubr
            -28 14 0 vhcurveto
            return
          </CharString>
          <CharString index="425">
            hintmask 11010000
            416 callgsubr
            return
          </CharString>
          <CharString index="426">
            -21 588 86 hstem
            198 103 vstem
            return
          </CharString>
          <CharString index="427">
            139 callsubr
            213 97 return
          </CharString>
          <CharString index="428">
            80 hstemhm
            71 97 -78 104 187 97 return
          </CharString>
          <CharString index="429">
            196 callgsubr
            -189 return
          </CharString>
          <CharString index="430">
            hhcurveto
            71 57 26 42 29 hvcurveto
            -187 return
          </CharString>
          <CharString index="431">
            57 110 hvcurveto
            -95 hlineto
            -53 return
          </CharString>
          <CharString index="432">
            -120 50 -60 84 -16 vhcurveto
            return
          </CharString>
          <CharString index="433">
            -137 372 callgsubr
            return
          </CharString>
          <CharString index="434">
            40 53 vhcurveto
            -95 hlineto
            -114 return
          </CharString>
          <CharString index="435">
            285 78 107 80 hstem
            53 return
          </CharString>
          <CharString index="436">
            hlineto
            -16 -28 -9 -34 -38 vvcurveto
            return
          </CharString>
          <CharString index="437">
            hlineto
            -14 -27 -7 -31 -34 vvcurveto
            return
          </CharString>
          <CharString index="438">
            97 251 callsubr
            return
          </CharString>
          <CharString index="439">
            -577 643 28 47 79 return
          </CharString>
          <CharString index="440">
            hstemhm
            43 104 189 100 return
          </CharString>
          <CharString index="441">
            rmoveto
            169 120 80 return
          </CharString>
          <CharString index="442">
            28 -8 95 501 95 return
          </CharString>
          <CharString index="443">
            -81 hlineto
            349 callsubr
            return
          </CharString>
          <CharString index="444">
            71 103 304 103 return
          </CharString>
          <CharString index="445">
            80 hstem
            189 96 return
          </CharString>
          <CharString index="446">
            80 424 callsubr
            return
          </CharString>
          <CharString index="447">
            80 -73 78 93 80 return
          </CharString>
          <CharString index="448">
            94 116 97 return
          </CharString>
          <CharString index="449">
            287 callsubr
            -64 78 217 81 -37 286 callsubr
            return
          </CharString>
          <CharString index="450">
            21 -21 377 callsubr
            return
          </CharString>
          <CharString index="451">
            435 callsubr
            -14 vlineto
            -26 -6 return
          </CharString>
          <CharString index="452">
            hhcurveto
            -75 -45 29 52 48 49 30 71 hvcurveto
            56 81 -47 hlineto
            return
          </CharString>
          <CharString index="453">
            66 36 -38 -63 -99 -86 -65 -115 -98 -68 35 62 hvcurveto
            return
          </CharString>
          <CharString index="454">
            72 57 26 42 29 hvcurveto
            333 callgsubr
            80 return
          </CharString>
          <CharString index="455">
            95 -62 callsubr
          </CharString>
          <CharString index="456">
            103 62 -43 -81 return
          </CharString>
          <CharString index="457">
            96 181 96 return
          </CharString>
          <CharString index="458">
            81 110 80 return
          </CharString>
          <CharString index="459">
            86 208 86 return
          </CharString>
          <CharString index="460">
            -83 64 -36 118 71 46 -11 -53 -48 -36 -28 -53 return
          </CharString>
          <CharString index="461">
            0 83 6 79 91 80 38 81 -59 373 callsubr
            return
          </CharString>
          <CharString index="462">
            77 92 80 93 80 hstemhm
            59 95 -81 99 200 97 return
          </CharString>
          <CharString index="463">
            -93 75 -74 93 92 75 74 93 92 -75 76 -92 vhcurveto
            return
          </CharString>
          <CharString index="464">
            rmoveto
            -69 -44 30 81 hvcurveto
            74 vlineto
            214 -185 rlineto
            return
          </CharString>
          <CharString index="465">
            hlineto
            -28 -25 -13 -33 -35 vvcurveto
            -71 50 -43 56 -6 vhcurveto
            return
          </CharString>
          <CharString index="466">
            -69 -49 45 74 69 50 43 64 22 18 -3 -5 18 return
          </CharString>
          <CharString index="467">
            hhcurveto
            48 38 18 27 28 hvcurveto
            -137 140 callgsubr
            return
          </CharString>
          <CharString index="468">
            rlineto
            68 -43 -56 35 -78 hhcurveto
            -30 -31 -5 -2 -7 hvcurveto
            return
          </CharString>
          <CharString index="469">
            80 53 72 callgsubr
            return
          </CharString>
          <CharString index="470">
            417 callsubr
            hvcurveto
            return
          </CharString>
          <CharString index="471">
            -80 102 -123 hlineto
            -67 24 -50 return
          </CharString>
          <CharString index="472">
            1 8 72 callsubr
            return
          </CharString>
          <CharString index="473">
            -221 vlineto
            -39 -16 -22 -39 -30 return
          </CharString>
          <CharString index="474">
            -62 callgsubr
            -34 25 -25 34 return
          </CharString>
          <CharString index="475">
            -130 hlineto
            -12 callgsubr
            return
          </CharString>
          <CharString index="476">
            570 106 80 vlineto
            endchar
          </CharString>
          <CharString index="477">
            309 callgsubr
            hstemhm
            return
          </CharString>
          <CharString index="478">
            351 callsubr
            hstemhm
            return
          </CharString>
          <CharString index="479">
            99 507 -99 hlineto
            return
          </CharString>
          <CharString index="480">
            83 88 80 hstemhm
            return
          </CharString>
          <CharString index="481">
            vlineto
            -26 -6 -17 return
          </CharString>
          <CharString index="482">
            -64 -33 33 86 return
          </CharString>
          <CharString index="483">
            -75 -9 -53 -48 -74 vvcurveto
            -85 64 -56 93 -13 vhcurveto
            return
          </CharString>
          <CharString index="484">
            168 82 320 410 callsubr
            return
          </CharString>
          <CharString index="485">
            10 -22 -26 6 -30 -20 callsubr
            return
          </CharString>
          <CharString index="486">
            175 callgsubr
            -185 268 rlineto
            -5 return
          </CharString>
          <CharString index="487">
            0 83 36 84 56 80 38 337 callgsubr
            return
          </CharString>
          <CharString index="488">
            86 396 callgsubr
            return
          </CharString>
          <CharString index="489">
            67 15 45 44 76 vvcurveto
            33 -12 33 -20 23 vhcurveto
            return
          </CharString>
          <CharString index="490">
            11 -18 -25 7 -31 hhcurveto
            -69 -46 -43 -55 -13 hvcurveto
            return
          </CharString>
          <CharString index="491">
            -25 13 -31 114 callgsubr
            -63 rlineto
            83 130 return
          </CharString>
          <CharString index="492">
            -15 callsubr
            7 17 vhcurveto
            endchar
          </CharString>
          <CharString index="493">
            hmoveto
            372 callsubr
            return
          </CharString>
          <CharString index="494">
            94 46 114 43 95 return
          </CharString>
          <CharString index="495">
            -188 97 178 96 return
          </CharString>
          <CharString index="496">
            80 -80 85 hstemhm
            104 95 return
          </CharString>
          <CharString index="497">
            -60 callgsubr
            hstem
            return
          </CharString>
          <CharString index="498">
            81 282 80 return
          </CharString>
          <CharString index="499">
            78 192 78 return
          </CharString>
          <CharString index="500">
            80 -79 82 hstemhm
            return
          </CharString>
          <CharString index="501">
            -80 90 -195 return
          </CharString>
          <CharString index="502">
            hlineto
            -235 -417 rlineto
            -85 296 -153 return
          </CharString>
          <CharString index="503">
            -62 -8 -24 -63 vhcurveto
            -67 -78 hlineto
            53 -150 return
          </CharString>
          <CharString index="504">
            317 84 169 80 hstemhm
            106 96 -95 105 return
          </CharString>
          <CharString index="505">
            95 -84 97 157 96 -52 96 117 98 return
          </CharString>
          <CharString index="506">
            77 40 194 callsubr
            return
          </CharString>
          <CharString index="507">
            -34 -29 -42 -22 -47 159 callgsubr
            return
          </CharString>
          <CharString index="508">
            -263 hlineto
            -74 -56 -65 -84 -69 -49 45 73 return
          </CharString>
          <CharString index="509">
            hvcurveto
            294 347 rmoveto
            169 112 80 return
          </CharString>
          <CharString index="510">
            238 callgsubr
            -274 95 -95 callgsubr
            return
          </CharString>
          <CharString index="511">
            -13 89 259 86 160 90 -15 -20 hstemhm
            return
          </CharString>
          <CharString index="512">
            439 callgsubr
            -29 return
          </CharString>
          <CharString index="513">
            -297 vlineto
            -79 callsubr
            return
          </CharString>
          <CharString index="514">
            -72 -48 43 76 78 59 44 84 hvcurveto
            endchar
          </CharString>
          <CharString index="515">
            -79 -166 vlineto
            hintmask 1011111010000000
            return
          </CharString>
          <CharString index="516">
            85 214 80 hstem
            104 95 return
          </CharString>
          <CharString index="517">
            80 hstem
            252 callsubr
            return
          </CharString>
          <CharString index="518">
            79 23 46 57 69 vvcurveto
            76 return
          </CharString>
          <CharString index="519">
            -21 274 76 220 80 return
          </CharString>
          <CharString index="520">
            298 callsubr
            149 96 return
          </CharString>
          <CharString index="521">
            80 116 80 hstem
            18 98 return
          </CharString>
          <CharString index="522">
            124 6 263 callsubr
            return
          </CharString>
          <CharString index="523">
            25 -8 -10 17 vhcurveto
            89 vlineto
            return
          </CharString>
          <CharString index="524">
            hlineto
            -174 -82 -95 -131 return
          </CharString>
          <CharString index="525">
            -122 96 570 return
          </CharString>
          <CharString index="526">
            50 54 45 60 32 return
          </CharString>
          <CharString index="527">
            264 callsubr
            -6 return
          </CharString>
          <CharString index="528">
            35 35 -27 28 -36 return
          </CharString>
          <CharString index="529">
            119 174 return
          </CharString>
          <CharString index="530">
            98 253 97 return
          </CharString>
          <CharString index="531">
            hstemhm
            143 96 return
          </CharString>
          <CharString index="532">
            -36 -69 hvcurveto
            -40 -84 40 hlineto
            hintmask 11101000
            100 return
          </CharString>
          <CharString index="533">
            78 387 80 hstem
            72 298 callgsubr
            return
          </CharString>
          <CharString index="534">
            hhcurveto
            72 57 26 42 29 hvcurveto
            -187 96 return
          </CharString>
          <CharString index="535">
            -90 -81 -36 -94 -79 69 -45 88 -4 hvcurveto
            return
          </CharString>
          <CharString index="536">
            25 26 -18 19 -26 -25 -19 -19 -26 vhcurveto
            return
          </CharString>
          <CharString index="537">
            322 callsubr
            97 return
          </CharString>
          <CharString index="538">
            18 46 25 26 -5 -9 26 vhcurveto
            -618 return
          </CharString>
          <CharString index="539">
            -35 26 -27 36 35 28 27 35 35 -28 return
          </CharString>
          <CharString index="540">
            -101 -75 -47 -92 -105 97 -24 101 -4 hvcurveto
            return
          </CharString>
          <CharString index="541">
            205 callsubr
            22 20 -8 -10 14 vhcurveto
            return
          </CharString>
          <CharString index="542">
            205 callsubr
            32 26 -16 -17 15 vhcurveto
            return
          </CharString>
          <CharString index="543">
            -218 vlineto
            -10 -3 -8 -4 -7 -6 rrcurveto
            return
          </CharString>
          <CharString index="544">
            hhcurveto
            320 callgsubr
            return
          </CharString>
          <CharString index="545">
            370 callsubr
            101 119 39 94 return
          </CharString>
          <CharString index="546">
            -80 367 -297 hlineto
            -60 -46 -43 -54 return
          </CharString>
          <CharString index="547">
            184 152 207 80 hlineto
            endchar
          </CharString>
          <CharString index="548">
            67 -27 52 -49 29 vhcurveto
            107 vlineto
            endchar
          </CharString>
          <CharString index="549">
            -887 rmoveto
            102 674 -102 hlineto
            endchar
          </CharString>
          <CharString index="550">
            119 122 return
          </CharString>
          <CharString index="551">
            83 169 83 return
          </CharString>
          <CharString index="552">
            99 172 96 return
          </CharString>
          <CharString index="553">
            rlineto
            133 hlineto
            return
          </CharString>
          <CharString index="554">
            hstem
            46 108 return
          </CharString>
        <CharString name=".notdef">
          -63 0 50 601 50 hstem
          2 53 400 52 vstem
          2 hmoveto
          505 701 -505 hlineto
          53 -50 rmoveto
          400 -601 -400 hlineto
          200 252 rmoveto
          105 -209 rlineto
          60 hlineto
          -135 254 135 261 rlineto
          -60 hlineto
          -100 -206 rlineto
          -4 hlineto
          -105 206 rlineto
          -60 hlineto
          134 -255 -134 -260 rlineto
          60 hlineto
          100 209 rlineto
          endchar
        </CharString>
        <CharString name="A">
          81 callgsubr
          hstem
          31 598 vstem
          222 251 -95 callsubr
        </CharString>
        <CharString name="AE">
          320 0 86 79 86 43 352 callsubr
          hstem
          459 100 vstem
          266 251 rmoveto
          19 34 84 149 58 109 32 65 rlinecurve
          -357 vlineto
          100 -165 rmoveto
          208 249 86 -249 208 281 86 -455 vlineto
          -366 -674 rlineto
          108 hlineto
          91 165 rlineto
          241 -165 386 86 hlineto
          endchar
        </CharString>
        <CharString name="Aacute">
          302 callsubr
          502 887 50 callsubr
          -160 -474 -95 callsubr
        </CharString>
        <CharString name="Abreve">
          81 callgsubr
          48 370 callgsubr
          156 392 callsubr
          hintmask 11101110
          426 887 rmoveto
          hintmask 11110110
          -56 -30 -42 -66 vhcurveto
          hintmask 11101110
          -66 -30 42 56 hvcurveto
          -78 hlineto
          -5 callgsubr
          -282 -636 -95 callsubr
        </CharString>
        <CharString name="Acircumflex">
          81 callgsubr
          51 254 callsubr
          31 598 hintmask 11101100
          332 827 rmoveto
          hintmask 11110100
          -42 callsubr
          -28 -474 -95 callsubr
        </CharString>
        <CharString name="Adieresis">
          81 callgsubr
          73 120 hstem
          164 212 callgsubr
          vstem
          445 747 -45 callsubr
          -3 -496 -95 callsubr
        </CharString>
        <CharString name="Agrave">
          302 callsubr
          369 725 75 callgsubr
          -63 -474 -95 callsubr
        </CharString>
        <CharString name="Amacron">
          81 callgsubr
          99 68 hstem
          31 598 vstem
          486 841 284 callsubr
          -264 -522 -95 callsubr
        </CharString>
        <CharString name="Aogonek">
          79 -247 69 199 144 callgsubr
          hstem
          430 83 vstem
          219 251 rmoveto
          11 34 rlineto
          88 265 10 46 0 vvcurveto
          0 11 -46 86 -265 vhcurveto
          11 -34 rlineto
          -39 423 rmoveto
          -136 hlineto
          -232 -674 rlineto
          109 hlineto
          53 165 rlineto
          273 hlineto
          50 -157 rlineto
          -45 -33 -39 -49 -61 224 callgsubr
          50 53 45 61 32 hvcurveto
          endchar
        </CharString>
        <CharString name="Aring">
          81 callgsubr
          41 61 109 60 hstem
          219 61 107 62 vstem
          333 885 31 callgsubr
          -111 -464 -95 callsubr
        </CharString>
        <CharString name="Atilde">
          81 callgsubr
          78 422 callgsubr
          31 598 hintmask 11110100
          453 868 106 callsubr
          hintmask 11101100
          -59 callsubr
          hintmask 11110100
          8 callsubr
          -287 -575 -95 callsubr
        </CharString>
        <CharString name="B">
          4 0 85 213 84 207 85 hstemhm
          73 103 241 105 -87 105 hintmask 11110100
          176 85 rmoveto
          213 122 vlineto
          92 45 -42 -66 -69 -45 -36 -82 hvcurveto
          -132 504 rmoveto
          110 hlineto
          hintmask 11111000
          92 39 -43 -54 -60 -42 -50 -106 hvcurveto
          -93 hlineto
          -103 292 rmoveto
          -674 259 vlineto
          hintmask 11110100
          135 73 77 104 99 -64 50 -66 12 hvcurveto
          hintmask 11111000
          65 16 47 60 76 vvcurveto
          107 -85 73 -143 vhcurveto
          endchar
        </CharString>
        <CharString name="C">
          335 callsubr
          447 callsubr
          vstem
          560 646 65 callgsubr
        </CharString>
        <CharString name="CR">
          -577 endchar
        </CharString>
        <CharString name="Cacute">
          335 callsubr
          42 162 447 callsubr
          vstem
          560 646 -80 callsubr
          -237 180 -43 callsubr
          endchar
        </CharString>
        <CharString name="Ccaron">
          335 callsubr
          42 162 447 callsubr
          vstem
          560 646 -80 callsubr
          -142 180 -78 callsubr
          endchar
        </CharString>
        <CharString name="Ccedilla">
          28 -257 68 181 95 501 95 447 callsubr
          199 77 vstem
          328 -51 rmoveto
          14 -21 11 -21 -27 vvcurveto
          -41 -28 -25 -54 -3 vhcurveto
          -68 vlineto
          108 2 51 62 70 vvcurveto
          24 -6 31 -12 17 vhcurveto
          148 697 65 callgsubr
        </CharString>
        <CharString name="Ccircumflex">
          335 callsubr
          42 254 callsubr
          46 108 hintmask 11101000
          560 646 -80 callsubr
          -246 342 rmoveto
          -25 callsubr
          hintmask 11011000
          82 102 rlineto
          hintmask 11101000
          101 callsubr
        </CharString>
        <CharString name="Cdotaccent">
          335 callsubr
          66 120 447 callsubr
          158 121 vstem
          312 809 rmoveto
          -34 26 -26 35 7 callsubr
          vhcurveto
          248 -163 65 callgsubr
        </CharString>
        <CharString name="D">
          90 0 87 499 88 hstem
          73 105 341 106 vstem
          178 87 87 callgsubr
        </CharString>
        <CharString name="Dcaron">
          90 0 87 499 88 51 162 hstem
          73 105 341 106 vstem
          355 725 -78 callsubr
          -87 -638 87 callgsubr
        </CharString>
        <CharString name="Dcroat">
          17 callsubr
        </CharString>
        <CharString name="Delta">
          59 0 85 512 77 hstem
          32 572 vstem
          142 85 rmoveto
          61 179 rlineto
          91 263 25 70 0 vvcurveto
          0 25 -69 90 -264 vhcurveto
          60 -179 rlineto
          -106 589 rmoveto
          -136 hlineto
          -220 -598 rlineto
          -76 572 76 vlineto
          endchar
        </CharString>
        <CharString name="E">
          82 callgsubr
          351 callgsubr
          176 86 -51 callsubr
        </CharString>
        <CharString name="Eacute">
          181 callgsubr
          442 887 50 callsubr
          -146 -639 -51 callsubr
        </CharString>
        <CharString name="Ebreve">
          82 callgsubr
          48 370 callgsubr
          73 103 -77 392 callsubr
          hintmask 11101101
          369 887 rmoveto
          hintmask 11110101
          -56 -30 -42 -66 vhcurveto
          hintmask 11101011
          -66 -30 42 56 hvcurveto
          -78 hlineto
          -5 callgsubr
          hintmask 11101101
          -271 -801 -51 callsubr
        </CharString>
        <CharString name="Ecaron">
          181 callgsubr
          319 725 -78 callsubr
          -53 -639 -51 callsubr
        </CharString>
        <CharString name="Ecircumflex">
          244 callgsubr
          -60 60 hstemhm
          73 103 hintmask 11101100
          272 827 rmoveto
          hintmask 11110100
          -42 callsubr
          -14 -639 -51 callsubr
        </CharString>
        <CharString name="Edieresis">
          82 callgsubr
          72 120 hstemhm
          73 103 -78 212 callgsubr
          hintmask 11111010
          379 746 rmoveto
          35 26 26 34 34 -26 26 -35 -34 -26 -26 -34 -34 26 -26 34 hvcurveto
          hintmask 11110110
          -220 hmoveto
          34 26 26 34 34 -26 26 -34 -36 -25 -26 -34 -34 25 -26 36 hvcurveto
          hintmask 11111010
          17 -660 -51 callsubr
        </CharString>
        <CharString name="Edotaccent">
          82 callgsubr
          74 120 hstem
          73 103 40 121 vstem
          277 748 rmoveto
          7 callsubr
          -34 26 -26 35 hvcurveto
          -101 -662 -51 callsubr
        </CharString>
        <CharString name="Egrave">
          181 callgsubr
          327 725 75 callgsubr
          -67 -639 -51 callsubr
        </CharString>
        <CharString name="Emacron">
          82 callgsubr
          100 68 351 callgsubr
          418 842 284 callsubr
          -242 -688 -51 callsubr
        </CharString>
        <CharString name="Eng">
          103 -199 92 128 371 callgsubr
          279 callsubr
          504 674 rmoveto
          -283 vlineto
          -176 6 -91 0 vhcurveto
          0 -45 90 -104 178 vhcurveto
          -166 282 rlineto
          -122 -674 103 282 hlineto
          169 -8 100 0 vhcurveto
          0 48 -99 102 -171 vhcurveto
          167 -281 rlineto
          19 -20 hlineto
          -60 -28 -27 -54 -30 -29 10 15 -23 vhcurveto
          -95 vlineto
          -14 25 42 -8 32 hhcurveto
          97 71 52 131 hvcurveto
          690 vlineto
          endchar
        </CharString>
        <CharString name="Eogonek">
          -63 -247 69 178 86 208 352 callsubr
          hstemhm
          73 103 27 82 hintmask 01111000
          462 hmoveto
          86 -286 208 249 86 -249 208 281 86 -384 -674 vlineto
          hintmask 11111100
          208 hlineto
          -42 -33 -36 -46 -56 14 callsubr
          419 callsubr
          hvcurveto
          endchar
        </CharString>
        <CharString name="Eth">
          17 callsubr
        </CharString>
        <CharString name="Euro">
          23 -8 92 131 67 90 67 128 94 hstem
          136 102 vstem
          560 633 rmoveto
          19 -35 -42 9 -56 hhcurveto
          -131 -109 -80 -142 -39 hvcurveto
          -100 -67 88 hlineto
          -1 -16 -1 -16 0 -17 0 -14 1 -14 -13 flex1
          -88 -67 99 hlineto
          -137 36 106 -86 136 hhcurveto
          63 37 9 18 35 hvcurveto
          98 vlineto
          -21 -32 -42 -12 -50 hhcurveto
          -82 -68 46 85 -31 hvcurveto
          196 67 -211 hlineto
          -1 13 -1 13 14 vvcurveto
          18 1 16 2 16 vhcurveto
          210 67 -194 hlineto
          83 31 67 45 86 hhcurveto
          49 39 -11 -20 31 hvcurveto
          endchar
        </CharString>
        <CharString name="F">
          -83 21 -21 281 86 221 86 351 callgsubr
          455 588 rmoveto
          86 -382 -674 103 281 245 86 -245 221 vlineto
          endchar
        </CharString>
        <CharString name="G">
          249 callgsubr
          447 callsubr
          360 101 vstem
          615 385 -80 callgsubr
        </CharString>
        <CharString name="Gbreve">
          249 callgsubr
          36 370 callgsubr
          46 108 43 392 callsubr
          -31 101 hintmask 1110110100000000
          467 887 rmoveto
          hintmask 1111010100000000
          -56 -30 -42 -66 vhcurveto
          hintmask 1110111100000000
          -66 -30 42 56 hvcurveto
          -78 hlineto
          -5 callgsubr
          hintmask 1110110010000000
          70 -502 -80 callgsubr
        </CharString>
        <CharString name="Gcircumflex">
          249 callgsubr
          39 254 callsubr
          46 108 360 101 hintmask 11101110
          371 827 rmoveto
          hintmask 11110110
          -42 callsubr
          326 -340 -80 callgsubr
        </CharString>
        <CharString name="Gdotaccent">
          249 callgsubr
          61 120 447 callsubr
          163 121 76 101 vstem
          378 747 rmoveto
          7 callsubr
          -34 26 -26 35 hvcurveto
          237 -362 -80 callgsubr
        </CharString>
        <CharString name="H">
          79 21 -21 295 89 hstem
          73 103 303 103 vstem
          479 674 224 callsubr
        </CharString>
        <CharString name="Hbar">
          154 21 -21 295 89 124 64 hstem
          111 103 303 103 vstem
          517 384 rmoveto
          -303 124 303 hlineto
          178 64 rmoveto
          -75 102 -103 -102 -303 102 -103 -102 -74 -64 74 -508 103 295 303 -295 103 508 75 hlineto
          endchar
        </CharString>
        <CharString name="Hcircumflex">
          79 21 -21 295 89 341 254 callsubr
          73 103 303 103 hintmask 11011100
          329 827 rmoveto
          hintmask 11101100
          -42 callsubr
          232 -51 224 callsubr
        </CharString>
        <CharString name="I">
          -313 21 -21 hstem
          81 102 vstem
          168 callsubr
          endchar
        </CharString>
        <CharString name="IJ">
          18 0 91 hstem
          81 102 238 103 vstem
          168 callsubr
          176 -653 69 callgsubr
          endchar
        </CharString>
        <CharString name="Iacute">
          -313 21 -21 725 162 hstem
          81 102 vstem
          168 callsubr
          13 51 -43 callsubr
          endchar
        </CharString>
        <CharString name="Ibreve">
          -313 21 -21 722 370 callgsubr
          -41 78 44 102 46 78 hintmask 10111100
          -41 887 rmoveto
          -5 callgsubr
          -78 hlineto
          hintmask 11011100
          -56 -30 -42 -66 vhcurveto
          hintmask 10111100
          -66 -30 42 56 hvcurveto
          44 442 callsubr
        </CharString>
        <CharString name="Icircumflex">
          -313 21 -21 725 254 callsubr
          81 102 hintmask 11010000
          88 887 rmoveto
          -25 callsubr
          hintmask 10110000
          82 102 rlineto
          hintmask 11010000
          -56 callgsubr
          -97 442 callsubr
        </CharString>
        <CharString name="Idieresis">
          -313 21 -21 747 120 hstemhm
          -36 121 -4 102 2 121 hintmask 11010000
          168 callsubr
          hintmask 11101000
          -117 133 -45 callgsubr
          endchar
        </CharString>
        <CharString name="Idotaccent">
          -313 21 -21 748 120 hstemhm
          72 121 -112 102 hintmask 11010000
          168 callsubr
          hintmask 11100000
          -9 134 rmoveto
          -34 26 -26 35 7 callsubr
          vhcurveto
          endchar
        </CharString>
        <CharString name="Igrave">
          -313 21 -21 725 162 hstem
          81 102 vstem
          168 callsubr
          -7 213 45 callsubr
          endchar
        </CharString>
        <CharString name="Imacron">
          -313 21 -21 772 68 hstem
          81 102 vstem
          168 callsubr
          203 98 250 callsubr
          endchar
        </CharString>
        <CharString name="Iogonek">
          -313 -247 69 199 -21 hstemhm
          -13 82 12 102 hintmask 11010000
          183 674 rmoveto
          -102 -663 hlineto
          hintmask 11110000
          -49 -33 -45 -50 -63 14 callsubr
          hvcurveto
          hintmask 11010000
          312 callsubr
        </CharString>
        <CharString name="Itilde">
          -313 21 -21 751 422 callgsubr
          81 102 hintmask 11010000
          168 callsubr
          170 193 106 callsubr
          hintmask 10110000
          -59 callsubr
          hintmask 11010000
          164 callsubr
        </CharString>
        <CharString name="J">
          -209 0 91 hstem
          194 103 vstem
          30 21 69 callgsubr
          endchar
        </CharString>
        <CharString name="Jcircumflex">
          -181 0 91 634 254 callsubr
          194 103 hintmask 11010000
          30 21 69 callgsubr
          172 771 rmoveto
          -25 callsubr
          hintmask 10110000
          82 102 rlineto
          hintmask 11010000
          101 callsubr
        </CharString>
        <CharString name="K">
          22 21 -21 351 callgsubr
          73 hmoveto
          103 674 -103 hlineto
          239 -340 225 callsubr
        </CharString>
        <CharString name="L">
          -97 0 91 351 callgsubr
          176 91 186 callsubr
        </CharString>
        <CharString name="Lacute">
          -97 0 91 634 162 351 callgsubr
          460 887 50 callsubr
          -164 -51 rmoveto
          -103 -674 379 91 -276 hlineto
          endchar
        </CharString>
        <CharString name="Lcaron">
          -97 0 91 412 198 351 callgsubr
          447 701 350 callgsubr
          -81 -198 rlineto
          77 hlineto
          -158 -412 186 callsubr
        </CharString>
        <CharString name="Ldot">
          -86 0 91 219 129 hstem
          73 103 99 129 vstem
          339 310 rmoveto
          37 28 28 36 36 -28 29 -37 -37 -27 -29 -36 -36 27 -28 37 hvcurveto
          -163 -219 186 callsubr
        </CharString>
        <CharString name="Lslash">
          -59 0 91 hstem
          105 102 vstem
          207 91 rmoveto
          208 vlineto
          154 99 rlineto
          90 vlineto
          -154 -99 rlineto
          285 -102 -351 vlineto
          -71 -46 rlineto
          -90 vlineto
          71 46 rlineto
          -233 378 91 vlineto
          endchar
        </CharString>
        <CharString name="M">
          291 21 -21 534 140 hstem
          64 740 vstem
          64 hmoveto
          102 hlineto
          20 264 rlineto
          9 125 7 115 26 vvcurveto
          0 36 -110 55 -156 vhcurveto
          91 -251 rlineto
          81 hlineto
          94 251 rlineto
          53 143 45 127 0 vvcurveto
          0 8 -127 13 -143 vhcurveto
          24 -264 rlineto
          102 hlineto
          -62 674 rlineto
          -122 hlineto
          -94 -246 rlineto
          -55 -146 -46 -136 0 vvcurveto
          0 -44 140 -53 142 vhcurveto
          -90 246 rlineto
          -122 hlineto
          endchar
        </CharString>
        <CharString name="N">
          417 callgsubr
          279 callsubr
          73 callgsubr
          endchar
        </CharString>
        <CharString name="NULL">
          -577 endchar
        </CharString>
        <CharString name="Nacute">
          417 callgsubr
          51 162 279 callsubr
          319 725 -43 callsubr
          -341 -887 rmoveto
          -65 callsubr
          endchar
        </CharString>
        <CharString name="Ncaron">
          417 callgsubr
          51 162 279 callsubr
          73 callgsubr
          325 51 -78 callsubr
          endchar
        </CharString>
        <CharString name="Ntilde">
          417 callgsubr
          78 422 callgsubr
          73 103 328 103 hintmask 11101100
          73 callgsubr
          396 194 -28 callsubr
          endchar
        </CharString>
        <CharString name="O">
          144 callsubr
          hstem
          167 callgsubr
          vstem
          51 callgsubr
          endchar
        </CharString>
        <CharString name="OE">
          411 -8 96 -88 86 208 352 callsubr
          -83 96 hstemhm
          46 108 394 98 hintmask 10101110
          351 88 rmoveto
          -122 -75 96 156 155 71 96 125 128 70 -96 -155 -156 -70 -96 -127 hvcurveto
          hintmask 01110110
          295 -2 rmoveto
          208 254 86 -254 208 286 86 -384 vlineto
          hintmask 10101110
          -66 vlineto
          50 -49 -68 29 -81 hhcurveto
          -189 -115 -138 -209 -210 117 -138 188 80 67 29 51 50 hvcurveto
          hintmask 01110110
          -72 389 86 vlineto
          endchar
        </CharString>
        <CharString name="Oacute">
          144 callsubr
          38 162 hstem
          167 callgsubr
          vstem
          320 725 -43 callsubr
          -369 -547 -85 callgsubr
          endchar
        </CharString>
        <CharString name="Obreve">
          144 callsubr
          35 370 callgsubr
          46 108 35 392 callsubr
          20 108 hintmask 11011101
          189 887 rmoveto
          -104 61 -61 113 vhcurveto
          hintmask 11011111
          113 61 61 104 hvcurveto
          -78 hlineto
          hintmask 11101111
          -56 -30 -42 -66 vhcurveto
          hintmask 11011101
          -66 -30 42 56 hvcurveto
          -113 -547 rmoveto
          155 76 96 125 128 74 -96 -155 -156 -74 -96 -127 -122 -80 96 156 vhcurveto
          -108 hmoveto
          -210 122 -138 188 190 119 138 210 209 -116 138 -194 89 callgsubr
          vhcurveto
          endchar
        </CharString>
        <CharString name="Ocircumflex">
          144 callsubr
          38 254 callsubr
          167 callgsubr
          hintmask 11101100
          154 340 rmoveto
          155 76 96 125 128 74 -96 -155 -156 -74 -96 -127 -122 -80 96 156 vhcurveto
          -108 hmoveto
          -210 122 -138 188 190 119 138 210 209 -116 138 -194 89 callgsubr
          vhcurveto
          271 547 rmoveto
          -25 callsubr
          hintmask 11011100
          82 102 rlineto
          hintmask 11101100
          101 callsubr
        </CharString>
        <CharString name="Odieresis">
          144 callsubr
          60 120 hstemhm
          46 108 36 212 callgsubr
          25 108 hintmask 11111010
          190 807 rmoveto
          -34 25 -26 36 34 26 26 34 34 -26 26 -34 -36 -25 -26 -34 vhcurveto
          hintmask 11111110
          221 hmoveto
          -34 26 -26 34 35 26 26 34 34 -26 26 -35 -34 -26 -26 -34 vhcurveto
          -365 -467 rmoveto
          -210 122 -138 188 vhcurveto
          hintmask 11111010
          190 119 138 210 209 -116 138 -194 hvcurveto
          hintmask 11111110
          89 callgsubr
          hvcurveto
          108 hmoveto
          155 76 96 125 vhcurveto
          hintmask 11111010
          128 74 -96 -155 -156 -74 -96 -127 hvcurveto
          hintmask 11111110
          -122 -80 96 156 hvcurveto
          endchar
        </CharString>
        <CharString name="Ograve">
          144 callsubr
          38 162 hstem
          167 callgsubr
          vstem
          51 callgsubr
          158 547 45 callsubr
          endchar
        </CharString>
        <CharString name="Ohungarumlaut">
          144 callsubr
          38 162 hstem
          167 callgsubr
          vstem
          413 725 42 callgsubr
          -296 -547 -85 callgsubr
          endchar
        </CharString>
        <CharString name="Omacron">
          144 callsubr
          85 68 hstem
          167 callgsubr
          vstem
          508 772 250 callsubr
          -158 -432 -85 callgsubr
          endchar
        </CharString>
        <CharString name="Oslash">
          109 -8 92 511 92 hstem
          40 106 408 106 vstem
          520 497 rmoveto
          22 -41 12 -53 -63 vvcurveto
          -158 -74 -98 -129 -44 -38 12 22 -31 vhcurveto
          -56 64 rmoveto
          -23 41 -13 53 64 vvcurveto
          157 77 98 127 45 39 -11 -22 30 vhcurveto
          197 124 rmoveto
          -104 hlineto
          -35 -46 rlineto
          30 -47 -58 17 -67 hhcurveto
          -190 -120 -138 -209 -100 28 -84 49 -60 hvcurveto
          -77 -104 rlineto
          104 hlineto
          36 48 rlineto
          -31 47 58 -17 66 hhcurveto
          190 119 138 210 100 -27 83 -48 60 hvcurveto
          endchar
        </CharString>
        <CharString name="Otilde">
          144 callsubr
          66 422 callgsubr
          167 callgsubr
          hintmask 11101100
          51 callgsubr
          324 529 -28 callsubr
          endchar
        </CharString>
        <CharString name="P">
          -27 21 -21 239 85 265 85 hstem
          73 103 238 104 vstem
          176 324 rmoveto
          265 93 vlineto
          94 -2 51 -58 -74 vvcurveto
          -71 -49 -57 -90 -3 vhcurveto
          -202 350 rmoveto
          -674 103 239 96 vlineto
          145 101 87 129 126 -95 93 -157 hvcurveto
          endchar
        </CharString>
        <CharString name="Q">
          142 -8 96 503 96 hstem
          167 callgsubr
          vstem
          154 340 rmoveto
          155 76 96 125 128 74 -96 -155 -156 -74 -96 -127 -122 -80 96 156 vhcurveto
          545 -439 rmoveto
          -202 121 rlineto
          106 52 62 114 152 vvcurveto
          209 -116 138 -194 89 callgsubr
          -210 122 -138 188 11 10 0 1 11 vhcurveto
          197 -137 rlineto
          endchar
        </CharString>
        <CharString name="R">
          -9 21 412 callgsubr
          hstem
          73 103 223 104 vstem
          176 588 -5 callsubr
        </CharString>
        <CharString name="Racute">
          269 callgsubr
          440 887 50 callsubr
          -144 -137 -5 callsubr
        </CharString>
        <CharString name="Rcaron">
          269 callgsubr
          335 725 -78 callsubr
          -69 -137 -5 callsubr
        </CharString>
        <CharString name="S">
          -56 -7 91 503 92 hstem
          58 109 197 108 vstem
          437 647 -90 callgsubr
          endchar
        </CharString>
        <CharString name="Sacute">
          -56 -7 91 503 92 46 162 hstem
          58 109 197 108 vstem
          234 725 -43 callsubr
          108 -240 -90 callgsubr
          endchar
        </CharString>
        <CharString name="Scaron">
          -56 -7 91 503 92 46 162 hstem
          58 109 197 108 vstem
          437 647 -90 callgsubr
          -128 180 -78 callsubr
          endchar
        </CharString>
        <CharString name="Scircumflex">
          -56 -7 91 503 92 46 254 callsubr
          58 109 197 108 hintmask 11101100
          437 647 -90 callgsubr
          -221 342 rmoveto
          -25 callsubr
          hintmask 11011100
          82 102 rlineto
          hintmask 11101100
          101 callsubr
        </CharString>
        <CharString name="T">
          -77 21 319 callsubr
          478 674 186 callgsubr
        </CharString>
        <CharString name="Tbar">
          -77 21 -21 290 79 219 86 hstem
          198 103 vstem
          478 588 rmoveto
          86 -456 -86 176 -219 -115 -79 115 -290 103 290 116 79 -116 219 vlineto
          endchar
        </CharString>
        <CharString name="Tcaron">
          -77 21 -21 588 86 51 162 hstem
          198 103 vstem
          296 725 -78 callsubr
          272 -51 186 callgsubr
        </CharString>
        <CharString name="Thorn">
          -33 21 -21 120 85 264 85 hstem
          73 103 233 104 vstem
          176 205 rmoveto
          264 83 vlineto
          108 42 -61 -75 -71 -44 -57 -100 hvcurveto
          -89 349 rmoveto
          120 -103 -674 103 120 91 vlineto
          150 96 87 128 127 -90 92 -162 hvcurveto
          endchar
        </CharString>
        <CharString name="U">
          75 -9 95 hstem
          337 callsubr
          vstem
          478 256 38 callsubr
        </CharString>
        <CharString name="Uacute">
          75 -9 95 639 162 hstem
          337 callsubr
          vstem
          297 725 -43 callsubr
          86 -631 38 callsubr
        </CharString>
        <CharString name="Ubreve">
          75 -9 95 636 370 callgsubr
          71 103 -21 392 callsubr
          -23 103 hintmask 10101100
          153 887 rmoveto
          -5 callgsubr
          -78 hlineto
          hintmask 11010100
          -56 -30 -42 -66 vhcurveto
          hintmask 10101010
          -66 -30 42 56 hvcurveto
          247 -631 rmoveto
          231 callsubr
          vhcurveto
          hintmask 10110010
          232 callgsubr
          hvcurveto
          423 -103 -424 vlineto
          -171 100 -88 154 156 100 89 178 vhcurveto
          416 -103 vlineto
          endchar
        </CharString>
        <CharString name="Ucircumflex">
          75 -9 95 639 254 callsubr
          337 callsubr
          hintmask 11011000
          478 256 -79 callgsubr
          -196 213 rmoveto
          -25 callsubr
          hintmask 10111000
          82 102 rlineto
          hintmask 11011000
          101 callsubr
        </CharString>
        <CharString name="Udieresis">
          75 -9 95 661 120 hstemhm
          71 103 -17 212 callgsubr
          -21 103 hintmask 11011000
          157 807 -45 callgsubr
          hintmask 11100100
          100 -551 38 callsubr
        </CharString>
        <CharString name="Ugrave">
          75 -9 95 639 162 hstem
          337 callsubr
          vstem
          478 256 -79 callgsubr
          -201 213 45 callsubr
          endchar
        </CharString>
        <CharString name="Uhungarumlaut">
          75 -9 95 639 162 hstem
          337 callsubr
          vstem
          478 256 -79 callgsubr
          -109 51 42 callgsubr
          endchar
        </CharString>
        <CharString name="Umacron">
          75 -9 95 686 68 hstem
          337 callsubr
          vstem
          478 256 -79 callgsubr
          5 98 250 callsubr
          endchar
        </CharString>
        <CharString name="Uogonek">
          75 -240 69 163 94 -73 -21 hstemhm
          71 103 58 82 164 103 hintmask 10110100
          478 674 rmoveto
          -418 vlineto
          hintmask 11011100
          231 callsubr
          232 callgsubr
          vhcurveto
          423 -103 -424 vlineto
          -159 86 -87 136 -12 vhcurveto
          -35 -31 -26 -41 -48 14 callsubr
          50 53 44 60 32 hvcurveto
          96 33 58 83 136 vvcurveto
          416 vlineto
          endchar
        </CharString>
        <CharString name="Uring">
          75 -9 95 629 61 109 60 hstem
          71 103 40 61 107 62 34 103 vstem
          214 829 128 callgsubr
          203 -575 38 callsubr
        </CharString>
        <CharString name="Utilde">
          75 -9 95 665 422 callgsubr
          337 callsubr
          hintmask 11011000
          478 256 -79 callgsubr
          -24 193 106 callsubr
          hintmask 10111000
          -59 callsubr
          hintmask 11011000
          164 callsubr
        </CharString>
        <CharString name="V">
          66 21 -21 hstem
          31 582 vstem
          613 674 rmoveto
          -110 hlineto
          -87 -268 rlineto
          -64 -194 -32 -120 0 vvcurveto
          0 -31 120 -62 194 vhcurveto
          -86 268 rlineto
          -110 hlineto
          227 -674 rlineto
          122 hlineto
          endchar
        </CharString>
        <CharString name="W">
          228 callsubr
          hstem
          31 886 vstem
          432 664 -91 callsubr
          endchar
        </CharString>
        <CharString name="Wacute">
          399 callgsubr
          hstem
          31 886 vstem
          432 664 -91 callsubr
          -77 61 -43 callsubr
          endchar
        </CharString>
        <CharString name="Wcircumflex">
          399 callgsubr
          -60 60 hstemhm
          31 886 hintmask 11101000
          432 664 -91 callsubr
          -88 223 rmoveto
          -25 callsubr
          hintmask 11011000
          82 102 rlineto
          hintmask 11101000
          101 callsubr
        </CharString>
        <CharString name="Wdieresis">
          228 callsubr
          82 120 hstem
          307 212 callgsubr
          vstem
          432 664 -91 callsubr
          5 142 30 callsubr
          endchar
        </CharString>
        <CharString name="Wgrave">
          399 callgsubr
          hstem
          31 886 vstem
          420 887 45 callsubr
          -83 -61 -91 callsubr
          endchar
        </CharString>
        <CharString name="X">
          51 21 -21 hstem
          35 557 vstem
          251 341 rmoveto
          -216 -341 rlineto
          123 hlineto
          17 31 119 190 17 32 160 -253 rcurveline
          121 hlineto
          -223 340 204 334 rlineto
          -123 hlineto
          -16 -29 -110 -184 -15 -29 -143 242 rcurveline
          -119 hlineto
          endchar
        </CharString>
        <CharString name="Y">
          31 21 -21 hstem
          251 103 vstem
          585 674 rmoveto
          -118 hlineto
          -49 -99 rlineto
          -29 callsubr
        </CharString>
        <CharString name="Yacute">
          376 callgsubr
          482 887 50 callsubr
          223 -51 rmoveto
          -118 hlineto
          -49 -99 rlineto
          -29 callsubr
        </CharString>
        <CharString name="Ycircumflex">
          31 21 -21 725 254 callsubr
          251 103 hintmask 10110000
          303 827 rmoveto
          hintmask 11010000
          -42 callsubr
          364 -51 rmoveto
          -118 hlineto
          -49 -99 rlineto
          -29 callsubr
        </CharString>
        <CharString name="Ydieresis">
          31 21 -21 746 120 hstemhm
          136 121 -6 103 3 121 hintmask 11101000
          417 746 -45 callsubr
          388 -72 rmoveto
          -118 hlineto
          -49 -99 rlineto
          hintmask 11010000
          -29 callsubr
        </CharString>
        <CharString name="Ygrave">
          376 callgsubr
          355 725 75 callgsubr
          314 -51 rmoveto
          -118 hlineto
          -49 -99 rlineto
          -29 callsubr
        </CharString>
        <CharString name="Z">
          389 callgsubr
          hstem
          54 476 vstem
          516 674 47 callsubr
          endchar
        </CharString>
        <CharString name="Zacute">
          389 callgsubr
          51 162 hstem
          54 476 vstem
          266 725 -43 callsubr
          155 -213 47 callsubr
          endchar
        </CharString>
        <CharString name="Zcaron">
          389 callgsubr
          51 162 hstem
          54 476 vstem
          516 674 47 callsubr
          -177 130 -78 callsubr
          endchar
        </CharString>
        <CharString name="Zdotaccent">
          389 callgsubr
          74 120 hstem
          242 121 vstem
          516 674 47 callsubr
          -274 213 rmoveto
          -34 26 -26 35 7 callsubr
          vhcurveto
          endchar
        </CharString>
        <CharString name="a">
          46 callgsubr
          333 callsubr
          hintmask 10111100
          336 226 -93 callgsubr
          hintmask 01111100
          -35 callsubr
        </CharString>
        <CharString name="aacute">
          46 callgsubr
          43 162 333 callsubr
          hintmask 10111110
          419 720 50 callsubr
          37 -332 -93 callgsubr
          hintmask 01111110
          -35 callsubr
        </CharString>
        <CharString name="abreve">
          46 callgsubr
          39 67 hstemhm
          43 104 -70 78 181 100 -89 78 hintmask 1011101010000000
          347 719 rmoveto
          -56 -30 -42 -66 -66 -30 42 56 vhcurveto
          -78 hlineto
          -5 callgsubr
          hintmask 1011110100000000
          -89 -493 -93 callgsubr
          hintmask 0111110100000000
          -35 callsubr
        </CharString>
        <CharString name="acircumflex">
          46 callgsubr
          43 162 333 callsubr
          hintmask 10111110
          254 660 rmoveto
          -42 callsubr
          164 -332 -93 callgsubr
          hintmask 01111110
          -35 callsubr
        </CharString>
        <CharString name="acute">
          281 callsubr
          121 204 vstem
          121 636 -43 callsubr
          endchar
        </CharString>
        <CharString name="adieresis">
          46 callgsubr
          63 120 hstemhm
          43 104 -62 212 callgsubr
          -91 100 hintmask 1011101100000000
          366 578 -45 callsubr
          hintmask 1011110010000000
          190 -352 -93 callgsubr
          hintmask 0111110010000000
          -35 callsubr
        </CharString>
        <CharString name="ae">
          239 -5 79 -79 82 136 77 -65 73 134 81 hstemhm
          48 103 190 96 244 95 hintmask 10101111
          341 175 rmoveto
          -62 -45 -39 -58 -58 -29 29 44 vhcurveto
          hintmask 10011111
          50 43 28 80 vhcurveto
          67 hlineto
          hintmask 10101111
          340 65 rmoveto
          -244 hlineto
          98 12 58 44 62 hhcurveto
          68 42 -45 -79 2 hvcurveto
          89 -95 rmoveto
          3 17 3 30 15 vvcurveto
          156 -77 82 -131 -72 -62 -30 -53 -36 vhcurveto
          53 -22 -55 32 -83 hhcurveto
          -63 -56 -15 -20 -33 hvcurveto
          -93 vlineto
          25 38 56 19 53 hhcurveto
          81 27 -40 -65 hvcurveto
          hintmask 10011111
          -28 -82 vlineto
          -133 -78 -58 -97 -90 65 -58 103 97 59 47 54 23 hvcurveto
          -65 40 81 -36 82 hhcurveto
          47 59 11 21 37 hvcurveto
          hintmask 01101111
          88 vlineto
          -24 -34 -50 -14 -50 hhcurveto
          -85 -68 46 90 -15 hvcurveto
          endchar
        </CharString>
        <CharString name="agrave">
          46 callgsubr
          43 162 333 callsubr
          hintmask 10111110
          301 558 75 callgsubr
          119 -332 -93 callgsubr
          hintmask 01111110
          -35 callsubr
        </CharString>
        <CharString name="amacron">
          46 callgsubr
          90 68 333 callsubr
          hintmask 10111110
          403 673 284 callsubr
          -67 -379 -93 callgsubr
          hintmask 01111110
          -35 callsubr
        </CharString>
        <CharString name="ampersand">
          138 -8 86 -78 119 -119 277 -256 -21 604 86 hstemhm
          61 101 -32 101 193 100 20 92 hintmask 1000110100000000
          276 290 rmoveto
          0 93 -88 90 -85 vhcurveto
          -26 -39 -48 -13 -51 hhcurveto
          -91 -68 40 63 50 36 31 77 29 hvcurveto
          hintmask 1000101100000000
          49 313 rmoveto
          66 34 -42 -53 -48 -31 -40 -82 -40 hvcurveto
          -52 55 -28 38 43 vvcurveto
          57 41 30 52 vhcurveto
          hintmask 0001110110000000
          388 -604 rmoveto
          hintmask 0100110110000000
          -32 30 -46 43 -49 46 rrcurveto
          hintmask 0010110110000000
          30 45 18 54 3 59 rrcurveto
          -92 hlineto
          -2 -37 -9 -31 -15 -27 -148 142 rcurveline
          hintmask 1000101100000000
          114 53 40 61 74 vvcurveto
          104 -77 74 -122 -115 -80 -66 -107 -63 36 -51 50 -52 vhcurveto
          hintmask 1000110100000000
          -105 -37 -50 -55 -81 vvcurveto
          -105 101 -81 160 83 68 23 40 52 vhcurveto
          hintmask 0001110110000000
          59 -55 rlineto
          endchar
        </CharString>
        <CharString name="aogonek">
          -80 -247 69 174 78 -57 -21 25 -21 225 73 133 84 hstemhm
          43 103 93 83 14 100 hintmask 1100111010000000
          336 225 rmoveto
          -60 vlineto
          -50 -41 -41 -62 -58 -29 29 44 50 43 28 80 vhcurveto
          167 97 rmoveto
          126 -61 67 -138 -62 -61 -15 -20 -33 vhcurveto
          -93 vlineto
          25 38 56 19 53 hhcurveto
          81 27 -40 -65 hvcurveto
          -28 -82 vlineto
          -133 -78 -58 -97 -87 62 -60 97 66 45 30 37 26 hvcurveto
          hintmask 1010111010000000
          -48 vlineto
          hintmask 1010111110000000
          -52 -33 -48 -52 -65 224 callgsubr
          hvcurveto
          hintmask 1001111010000000
          312 callsubr
        </CharString>
        <CharString name="approxequal">
          32 164 85 -19 83 53 84 -19 83 hstemhm
          42 524 hintmask 10011000
          499 306 177 callgsubr
          hintmask 10101000
          62 56 -66 89 hhcurveto
          68 45 41 51 33 hvcurveto
          -67 251 177 callgsubr
          hintmask 01101000
          62 56 -65 89 hhcurveto
          68 45 40 51 33 hvcurveto
          endchar
        </CharString>
        <CharString name="aring">
          46 callgsubr
          33 61 109 60 hstemhm
          43 104 -5 61 107 62 -36 100 hintmask 1011110110000000
          256 718 31 callgsubr
          hintmask 1011111001000000
          80 -322 -93 callgsubr
          hintmask 0111110101000000
          -35 callsubr
        </CharString>
        <CharString name="asciicircum">
          -107 522 72 hstem
          41 387 vstem
          428 332 rmoveto
          -142 262 rlineto
          -100 hlineto
          -145 -262 rlineto
          96 hlineto
          99 190 97 -190 rlineto
          endchar
        </CharString>
        <CharString name="asciitilde">
          38 192 90 -23 89 hstemhm
          34 547 hintmask 10100000
          510 341 rmoveto
          -35 -24 -28 -24 -43 hhcurveto
          hintmask 01100000
          -68 -47 66 -106 hhcurveto
          -63 -57 -42 -57 -40 hvcurveto
          66 -56 rlineto
          46 34 34 20 44 hhcurveto
          hintmask 10100000
          66 57 -67 94 hhcurveto
          71 47 44 52 34 hvcurveto
          endchar
        </CharString>
        <CharString name="asterisk">
          -140 471 203 hstem
          178 80 vstem
          276 471 rmoveto
          11 14 1 5 15 hvcurveto
          92 30 -25 76 -92 -29 -18 -6 -13 -8 -10 -8 rlinecurve
          5 12 3 15 18 vvcurveto
          97 -80 -97 vlineto
          -19 4 -15 5 -13 vhcurveto
          -10 9 -14 8 -17 6 -93 30 rcurveline
          -24 -76 92 -31 rlineto
          -5 15 13 -1 12 hhcurveto
          6 hlineto
          -12 -8 -11 -10 -10 -14 -58 -78 rcurveline
          65 -47 58 78 10 14 7 13 3 13 rlinecurve
          4 -12 6 -14 10 -14 57 -78 rcurveline
          64 47 -56 79 -11 15 -11 10 -11 7 rlinecurve
          endchar
        </CharString>
        <CharString name="at">
          349 -182 83 112 76 -74 78 254 76 125 82 hstemhm
          54 91 112 91 217 75 -63 75 146 85 hintmask 1101111101000000
          442 89 rmoveto
          -53 -41 43 68 85 49 62 66 59 33 -37 -66 10 hvcurveto
          -1 -18 -1 -17 -1 -16 rrcurveto
          -68 -20 -51 -36 -49 hhcurveto
          173 -144 rmoveto
          -32 -60 -65 -12 -59 hhcurveto
          -150 -136 99 196 197 156 155 195 167 135 -95 -192 hvcurveto
          hintmask 1011111101000000
          -102 -42 -66 -54 -44 -18 34 69 21 2 35 5 64 vhcurveto
          hintmask 1101111011000000
          10 103 rlineto
          -80 hlineto
          -1 -22 -2 -21 -1 -20 rrcurveto
          44 -25 -40 23 -54 hhcurveto
          -109 -88 -91 -127 -105 60 -87 104 65 54 35 60 30 hvcurveto
          hintmask 1011111011000000
          -46 14 35 -47 79 hhcurveto
          91 94 90 162 226 -178 137 -206 -243 -202 -184 -249 -211 137 -168 239 54 71 9 27 56 hvcurveto
          endchar
        </CharString>
        <CharString name="atilde">
          46 callgsubr
          70 73 -32 73 333 callsubr
          hintmask 10111011
          373 701 106 callsubr
          hintmask 10110111
          -59 callsubr
          hintmask 10111011
          8 callsubr
          -93 -433 -93 callgsubr
          hintmask 01111011
          -35 callsubr
        </CharString>
        <CharString name="b">
          5 326 callgsubr
          hstemhm
          71 99 270 101 hintmask 10111000
          308 79 rmoveto
          -70 -68 49 129 128 78 43 57 74 61 -59 -120 -102 -58 -68 -74 hvcurveto
          -138 628 rmoveto
          -99 hlineto
          hintmask 01111000
          -707 99 vlineto
          hintmask 10111000
          77 vlineto
          -52 33 51 -32 70 hhcurveto
          141 76 123 135 161 -92 102 -126 -65 -54 -31 -53 -34 hvcurveto
          endchar
        </CharString>
        <CharString name="backslash">
          -157 -103 810 hstem
          -37 465 vstem
          65 707 rmoveto
          -102 hlineto
          364 -810 rlineto
          101 hlineto
          endchar
        </CharString>
        <CharString name="bar">
          -334 -194 889 hstem
          76 91 vstem
          76 -194 rmoveto
          91 889 -91 hlineto
          endchar
        </CharString>
        <CharString name="braceleft">
          380 callgsubr
          140 99 -81 99 hintmask 11110000
          46 212 rmoveto
          hintmask 11101000
          5 11 0 -1 9 hvcurveto
          61 -9 26 -49 -54 -43 -18 -43 -49 vvcurveto
          hintmask 11110000
          -96 62 -62 76 17 18 3 6 18 vhcurveto
          94 vlineto
          -6 -11 -12 -3 -10 hhcurveto
          -38 -21 30 39 hvcurveto
          46 18 45 54 vvcurveto
          hintmask 11101000
          75 -45 60 -75 11 vhcurveto
          75 11 45 59 75 vvcurveto
          hintmask 11110000
          54 -18 45 47 vvcurveto
          38 21 30 38 10 12 -3 -6 11 vhcurveto
          94 vlineto
          6 -18 -18 3 -17 hhcurveto
          -76 -62 -62 -96 hvcurveto
          hintmask 11101000
          -49 18 -43 -43 vvcurveto
          -54 -29 -51 -58 -6 vhcurveto
          -1 -11 -9 0 -5 hhcurveto
          endchar
        </CharString>
        <CharString name="braceright">
          380 callgsubr
          91 98 -80 98 hintmask 11101000
          17 610 rmoveto
          6 10 12 3 10 hhcurveto
          38 22 -30 -38 hvcurveto
          -47 -18 -45 -54 vvcurveto
          hintmask 11110000
          -75 45 -59 74 -11 vhcurveto
          -74 -11 -45 -60 -75 vvcurveto
          hintmask 11101000
          -54 18 -45 -46 vvcurveto
          -39 -22 -30 -38 -10 -12 3 6 -10 vhcurveto
          -94 vlineto
          -6 18 17 -3 17 hhcurveto
          77 61 62 96 hvcurveto
          hintmask 11110000
          49 -18 43 43 vvcurveto
          54 27 49 61 9 vhcurveto
          1 8 12 0 5 hhcurveto
          96 vlineto
          -5 -10 0 1 -10 hvcurveto
          -59 6 -29 51 54 43 18 43 49 vvcurveto
          hintmask 11101000
          96 -61 62 -77 -17 -17 -3 -6 -18 vhcurveto
          endchar
        </CharString>
        <CharString name="bracketleft">
          -252 -186 87 719 87 hstem
          73 96 vstem
          319 620 rmoveto
          87 -246 -893 246 87 -150 719 vlineto
          endchar
        </CharString>
        <CharString name="bracketright">
          -252 -186 87 719 87 hstem
          157 95 vstem
          252 707 rmoveto
          -245 -87 150 -719 -150 -87 245 hlineto
          endchar
        </CharString>
        <CharString name="breve">
          -133 633 67 hstem
          48 392 callsubr
          vstem
          48 798 rmoveto
          -5 callgsubr
          -78 hlineto
          -56 -30 -42 -66 -66 -30 42 56 vhcurveto
          endchar
        </CharString>
        <CharString name="brokenbar">
          -334 -160 860 hstem
          76 91 vstem
          167 367 rmoveto
          333 -91 -333 vlineto
          91 -527 rmoveto
          333 -91 -333 vlineto
          endchar
        </CharString>
        <CharString name="bullet">
          -135 223 266 hstem
          88 265 vstem
          88 356 rmoveto
          -75 56 -58 77 74 58 58 75 75 -58 58 -75 -76 -56 -58 -75 vhcurveto
          endchar
        </CharString>
        <CharString name="c">
          336 callgsubr
          hstem
          41 101 vstem
          142 251 rmoveto
          129 callgsubr
          90 vlineto
          -64 callsubr
          endchar
        </CharString>
        <CharString name="cacute">
          336 callgsubr
          41 162 hstem
          41 101 vstem
          253 557 -43 callsubr
          -206 -468 rmoveto
          129 callgsubr
          90 vlineto
          -64 callsubr
          endchar
        </CharString>
        <CharString name="caron">
          281 callsubr
          42 360 vstem
          267 636 -78 callsubr
          endchar
        </CharString>
        <CharString name="ccaron">
          336 callgsubr
          42 162 hstem
          41 101 vstem
          427 488 rmoveto
          -64 callsubr
          129 callgsubr
          -106 160 -78 callsubr
          endchar
        </CharString>
        <CharString name="ccedilla">
          -106 -257 68 179 85 354 87 hstem
          41 101 129 77 vstem
          142 251 rmoveto
          129 callgsubr
          90 vlineto
          -64 callsubr
          206 -374 10 callgsubr
        </CharString>
        <CharString name="ccircumflex">
          336 callgsubr
          42 162 hstem
          41 101 vstem
          427 488 rmoveto
          -64 callsubr
          129 callgsubr
          -203 322 -34 callsubr
          endchar
        </CharString>
        <CharString name="cdotaccent">
          336 callgsubr
          64 120 hstem
          41 101 93 121 vstem
          142 251 rmoveto
          129 callgsubr
          90 vlineto
          -64 callsubr
          93 389 rmoveto
          -34 26 -26 35 7 callsubr
          vhcurveto
          endchar
        </CharString>
        <CharString name="cedilla">
          -133 -257 68 hstem
          224 77 vstem
          301 -123 10 callgsubr
        </CharString>
        <CharString name="cent">
          -117 -111 188 -83 83 -62 -21 22 -21 432 190 hstemhm
          41 101 115 84 hintmask 00011110
          420 488 rmoveto
          -27 13 -27 7 -25 3 rrcurveto
          106 -84 -108 vlineto
          -138 -22 -77 -111 -1 -124 rrcurveto
          -130 82 -106 134 -21 vhcurveto
          hintmask 10001110
          -106 84 vlineto
          hintmask 00101110
          105 vlineto
          27 4 27 7 25 12 rrcurveto
          hintmask 01001110
          88 vlineto
          -18 -31 -38 -10 -33 hhcurveto
          -112 -62 76 98 -2 hvcurveto
          102 1 69 74 106 hhcurveto
          34 36 -9 -18 32 hvcurveto
          endchar
        </CharString>
        <CharString name="circumflex">
          281 callsubr
          42 360 vstem
          177 798 -34 callsubr
          endchar
        </CharString>
        <CharString name="colon">
          -327 -1 134 191 134 hstem
          58 134 vstem
          58 391 rmoveto
          300 callsubr
          -325 vmoveto
          300 callsubr
          endchar
        </CharString>
        <CharString name="comma">
          -332 -124 234 hstem
          -8 217 vstem
          -8 -124 362 callgsubr
        </CharString>
        <CharString name="commaaccent">
          -140 299 callsubr
          hstem
          122 190 vstem
          122 16 callgsubr
          endchar
        </CharString>
        <CharString name="copyright">
          195 -9 75 88 70 223 72 88 75 hstem
          41 75 107 82 351 75 vstem
          41 337 rmoveto
          -189 156 -157 189 189 156 157 189 189 -156 156 -189 -189 -156 -156 -189 vhcurveto
          75 -1 rmoveto
          151 119 120 152 150 119 -120 -151 -151 -119 -119 -150 -152 -119 119 151 vhcurveto
          189 -1 rmoveto
          69 48 43 61 24 32 -7 -15 23 vhcurveto
          73 vlineto
          16 -29 -33 5 -23 hhcurveto
          -118 -67 -86 -98 -101 73 -80 109 31 35 8 13 22 hvcurveto
          74 vlineto
          -15 -21 -30 -10 -29 hhcurveto
          -63 -44 47 64 -1 hvcurveto
          endchar
        </CharString>
        <CharString name="currency">
          -26 96 79 274 79 hstem
          56 84 272 84 vstem
          56 310 rmoveto
          -46 12 -43 23 -33 vhcurveto
          -59 -58 61 -59 58 58 rlineto
          -22 34 42 -11 47 hhcurveto
          46 43 12 23 34 hvcurveto
          62 -60 60 59 -61 60 rlineto
          23 34 15 44 46 vvcurveto
          45 -14 42 -21 33 vhcurveto
          58 58 -60 59 -58 -57 rlineto
          21 -35 -41 13 -47 hhcurveto
          -47 -43 -13 -24 -35 hvcurveto
          -60 60 -61 -59 60 -60 rlineto
          -22 -34 -14 -43 -45 vvcurveto
          84 2 rmoveto
          77 56 60 80 80 56 -60 -77 -78 -56 -59 -80 -80 -56 60 77 vhcurveto
          endchar
        </CharString>
        <CharString name="d">
          3 326 callgsubr
          hstemhm
          41 101 270 99 hintmask 10111000
          96 callsubr
          138 628 rmoveto
          -277 vlineto
          92 callsubr
          hintmask 01111000
          -77 99 707 vlineto
          endchar
        </CharString>
        <CharString name="dagger">
          -43 21 -21 426 83 hstem
          220 89 vstem
          495 509 rmoveto
          -186 165 -89 -165 -182 -83 182 -426 89 426 186 hlineto
          endchar
        </CharString>
        <CharString name="daggerdbl">
          -30 21 -21 172 84 170 83 hstem
          226 89 vstem
          502 426 rmoveto
          83 -187 165 -89 -165 -181 -83 181 -170 -181 -84 181 -172 89 172 187 84 -187 170 vlineto
          endchar
        </CharString>
        <CharString name="dcaron">
          108 326 callgsubr
          -4 197 hstemhm
          41 101 270 99 hintmask 10101100
          96 callsubr
          138 351 rmoveto
          92 callsubr
          hintmask 01011100
          -77 99 707 -99 vlineto
          234 hmoveto
          -81 -197 rlineto
          77 hlineto
          113 197 rlineto
          endchar
        </CharString>
        <CharString name="dcroat">
          3 326 callgsubr
          66 63 hstemhm
          41 101 270 99 hintmask 10111100
          96 callsubr
          304 564 rmoveto
          -67 64 -99 -64 -181 -63 181 -150 hlineto
          92 callsubr
          hintmask 01111100
          -77 99 580 67 vlineto
          endchar
        </CharString>
        <CharString name="degree">
          -197 363 71 174 71 hstem
          30 75 170 75 vstem
          30 520 rmoveto
          -91 68 -66 91 90 71 68 91 90 -69 67 -90 -91 -70 -69 -90 vhcurveto
          75 1 rmoveto
          48 36 39 48 48 38 -39 -48 -48 -36 -39 -48 -48 -38 39 48 vhcurveto
          endchar
        </CharString>
        <CharString name="dieresis">
          -133 659 120 hstem
          51 212 callgsubr
          vstem
          51 719 -45 callgsubr
          endchar
        </CharString>
        <CharString name="divide">
          -13 221 118 vstem
          221 518 rmoveto
          -32 27 -28 32 32 27 28 32 32 -27 27 -32 -32 -27 -27 -32 vhcurveto
          -168 -222 rmoveto
          457 88 -457 hlineto
          168 -222 rmoveto
          -32 27 -27 32 32 27 27 32 32 -27 28 -32 -32 -27 -28 -32 vhcurveto
          endchar
        </CharString>
        <CharString name="dollar">
          -70 -112 196 -89 89 -68 -21 592 198 hstemhm
          47 110 33 84 -34 85 29 107 hintmask 00111101
          426 647 rmoveto
          hintmask 00111011
          -30 15 -36 9 -35 5 rrcurveto
          109 -85 -107 vlineto
          -113 -11 -80 -67 -107 vvcurveto
          -107 78 -45 77 -35 vhcurveto
          hintmask 01011101
          80 -35 72 -24 -67 vvcurveto
          -61 -48 -35 -72 -65 -67 21 38 -51 vhcurveto
          -107 vlineto
          38 -22 50 -14 51 -5 rrcurveto
          hintmask 10011101
          -107 84 vlineto
          hintmask 00111101
          107 vlineto
          110 12 77 67 110 vvcurveto
          114 -87 44 -82 36 vhcurveto
          -71 31 -64 27 62 vvcurveto
          53 43 36 74 53 60 -17 -25 39 vhcurveto
          endchar
        </CharString>
        <CharString name="dotaccent">
          -133 660 120 hstem
          161 121 vstem
          161 720 rmoveto
          -34 26 -26 35 7 callsubr
          vhcurveto
          endchar
        </CharString>
        <CharString name="dotlessi">
          392 callgsubr
          hstem
          73 99 vstem
          416 callgsubr
          endchar
        </CharString>
        <CharString name="dvMatraAA_Candrabindu">
          -60 callgsubr
          87 74 91 114 hstemhm
          -58 95 46 114 -110 97 56 95 hintmask 11101011
          139 737 rmoveto
          102 94 324 callsubr
          -37 -40 -64 -65 -37 327 callsubr
          88 -53 109 vhcurveto
          hintmask 11111101
          -56 222 150 callsubr
          -107 -389 rmoveto
          hintmask 11101011
          318 callgsubr
        </CharString>
        <CharString name="dvMatraAI_Candrabindu">
          332 callsubr
          -76 73 -73 166 -41 78 -39 114 hstemhm
          -122 387 callsubr
          hintmask 1010011110000000
          74 885 rmoveto
          33 25 24 33 31 -25 26 -33 -32 -24 -26 -31 -33 24 -24 32 hvcurveto
          hintmask 1100101110000000
          -512 -47 rmoveto
          5 callsubr
          -112 178 361 callsubr
          hintmask 1001001110000000
          613 -30 rmoveto
          hintmask 1010101110000000
          -53 -37 -40 -64 vhcurveto
          hintmask 1001001110000000
          -65 -37 40 53 hvcurveto
          -94 hlineto
          -113 87 -53 109 103 93 56 110 vhcurveto
          endchar
        </CharString>
        <CharString name="dvMatraE_Candrabindu">
          -577 721 73 -73 166 -70 81 -13 114 hstemhm
          -126 387 callsubr
          hintmask 00101110
          114 callsubr
          hintmask 01001110
          482 -171 rmoveto
          103 93 56 110 hvcurveto
          -95 hlineto
          hintmask 10101110
          -53 -37 -40 -64 vhcurveto
          hintmask 01001110
          -65 -37 40 53 hvcurveto
          -94 hlineto
          -113 88 -53 108 vhcurveto
          hintmask 00011110
          -56 221 150 callsubr
          endchar
        </CharString>
        <CharString name="dvSHA_MatraVocalicR">
          120 -232 77 170 -21 576 80 -72 79 hstemhm
          85 96 159 96 -34 96 21 97 hintmask 11011101
          260 578 rmoveto
          49 31 -39 -47 -47 -31 -40 -35 -25 hvcurveto
          -69 39 -24 41 40 vvcurveto
          43 30 35 49 vhcurveto
          hintmask 11101101
          356 -8 rmoveto
          106 80 -203 -356 hlineto
          -62 15 -52 16 -43 15 rrcurveto
          42 36 32 54 66 vvcurveto
          hintmask 11011101
          89 -71 72 -108 -107 -65 -76 -79 -66 33 -59 79 -51 vhcurveto
          -196 -116 77 -58 207 127 62 -26 77 -24 95 -22 rlinecurve
          -165 vlineto
          hintmask 11101011
          -71 -18 -46 -51 -62 vvcurveto
          -98 80 -45 99 44 44 10 14 28 vhcurveto
          78 vlineto
          -14 -26 -40 -11 -42 hhcurveto
          -58 -33 27 41 hvcurveto
          hintmask 11101101
          47 40 33 78 1 vhcurveto
          endchar
        </CharString>
        <CharString name="e">
          81 callsubr
          hstem
          384 95 vstem
          384 290 -100 callsubr
        </CharString>
        <CharString name="eacute">
          81 callsubr
          45 162 hstem
          384 95 vstem
          448 720 50 callsubr
          56 -268 -100 callsubr
        </CharString>
        <CharString name="ebreve">
          81 callsubr
          42 67 hstemhm
          99 392 callsubr
          -63 95 hintmask 11111100
          369 720 rmoveto
          -56 -30 -42 -66 -66 -30 42 56 vhcurveto
          -78 hlineto
          -5 callgsubr
          hintmask 11111010
          -63 -430 -100 callsubr
        </CharString>
        <CharString name="ecaron">
          81 callsubr
          45 162 hstem
          384 95 vstem
          319 558 -78 callsubr
          155 -268 -100 callsubr
        </CharString>
        <CharString name="ecircumflex">
          81 callsubr
          45 162 hstem
          384 95 vstem
          277 660 rmoveto
          -42 callsubr
          189 -268 -100 callsubr
        </CharString>
        <CharString name="edieresis">
          81 callsubr
          67 120 hstemhm
          111 212 callgsubr
          -69 95 hintmask 11111100
          392 580 -45 callsubr
          hintmask 11111010
          212 -290 -100 callsubr
        </CharString>
        <CharString name="edotaccent">
          81 callsubr
          67 120 hstem
          220 121 43 95 vstem
          281 580 rmoveto
          7 callsubr
          -34 26 -26 35 hvcurveto
          103 -290 -100 callsubr
        </CharString>
        <CharString name="egrave">
          81 callsubr
          45 162 hstem
          384 95 vstem
          324 558 75 callgsubr
          144 -268 -100 callsubr
        </CharString>
        <CharString name="eight">
          -39 -9 84 208 89 207 84 hstemhm
          46 100 -89 100 221 100 -85 99 hintmask 11110010
          267 75 rmoveto
          -84 -37 47 51 55 35 54 86 1 hvcurveto
          88 38 -50 -54 -54 -40 -50 -86 hvcurveto
          hintmask 11101100
          -1 504 rmoveto
          81 31 -48 -54 -69 -48 -36 -60 -62 -51 32 72 54 37 49 72 hvcurveto
          114 -250 rmoveto
          60 28 38 50 67 vvcurveto
          130 -101 59 -111 -109 -100 -65 -123 -69 39 -52 61 -26 vhcurveto
          hintmask 11110010
          -67 -26 -44 -53 -80 vvcurveto
          -110 94 -68 126 128 98 71 112 vhcurveto
          hintmask 11101100
          83 -45 49 -67 23 vhcurveto
          endchar
        </CharString>
        <CharString name="ellipsis">
          206 -8 135 hstem
          43 135 146 135 146 135 cntrmask 01110000
          43 60 rmoveto
          60 callgsubr
          281 hmoveto
          60 callgsubr
          281 hmoveto
          60 callgsubr
          endchar
        </CharString>
        <CharString name="emacron">
          81 callsubr
          92 68 hstem
          384 95 vstem
          426 673 284 callsubr
          -42 -315 -100 callsubr
        </CharString>
        <CharString name="emdash">
          249 233 78 hstem
          53 720 vstem
          53 233 rmoveto
          720 78 -720 hlineto
          endchar
        </CharString>
        <CharString name="endash">
          -33 231 78 hstem
          53 438 vstem
          53 231 rmoveto
          438 78 -438 hlineto
          endchar
        </CharString>
        <CharString name="eng">
          -26 -196 82 135 -21 429 85 hstem
          69 98 223 99 vstem
          488 233 rmoveto
          110 vlineto
          106 -63 65 -100 -74 -55 -33 -61 -29 vhcurveto
          87 -98 -507 98 275 vlineto
          102 61 52 65 57 40 -36 -73 vhcurveto
          -363 vlineto
          -52 -21 -19 -33 -20 -22 5 11 -22 vhcurveto
          -83 vlineto
          -10 27 21 -5 25 hhcurveto
          92 52 58 93 hvcurveto
          278 vlineto
          endchar
        </CharString>
        <CharString name="eogonek">
          -52 -238 69 188 -21 215 77 142 81 hstem
          193 82 109 95 vstem
          384 290 rmoveto
          -245 hlineto
          95 12 55 47 64 hhcurveto
          73 39 -50 -74 2 hvcurveto
          23 -453 rmoveto
          -13 -18 -28 -11 -28 hhcurveto
          -35 -23 17 34 47 48 43 56 32 hvcurveto
          26 5 24 8 18 10 rrcurveto
          88 vlineto
          -24 -34 -52 -14 -49 hhcurveto
          -92 -66 47 89 -14 hvcurveto
          333 hlineto
          3 17 3 33 15 vvcurveto
          156 -85 79 -126 -128 -99 -94 -167 -137 82 -100 134 -17 vhcurveto
          -36 -32 -28 -42 -50 vvcurveto
          -62 40 -50 87 33 30 7 14 24 vhcurveto
          endchar
        </CharString>
        <CharString name="equal">
          -13 193 85 125 84 hstem
          53 457 vstem
          53 403 rmoveto
          457 84 -457 hlineto
          -294 vmoveto
          457 85 -457 hlineto
          endchar
        </CharString>
        <CharString name="eth">
          -49 -9 89 239 87 hstem
          37 102 247 97 vstem
          256 80 rmoveto
          -69 -48 45 73 78 48 43 64 57 46 -28 -41 32 hvcurveto
          -128 -7 -59 -42 -64 hhcurveto
          205 529 rmoveto
          67 vlineto
          -120 -60 -22 23 -23 19 -24 16 rlinecurve
          -142 hlineto
          45 -25 45 -33 40 -41 -100 -50 rcurveline
          -67 vlineto
          141 71 39 -52 30 -62 12 -71 rlinecurve
          38 -36 -51 24 -59 hhcurveto
          -107 -92 -74 -129 -113 82 -99 137 142 85 103 181 112 -42 103 -60 79 hvcurveto
          endchar
        </CharString>
        <CharString name="exclam">
          -315 -8 137 hstemhm
          62 137 -116 96 hintmask 10100000
          83 214 rmoveto
          96 460 -96 hlineto
          hintmask 11000000
          -21 -614 rmoveto
          -39 29 -29 39 38 31 29 39 38 -31 31 -38 -39 -29 -31 -38 vhcurveto
          endchar
        </CharString>
        <CharString name="exclamdown">
          -315 380 137 hstemhm
          62 137 -116 96 hintmask 11000000
          62 449 rmoveto
          -38 29 -31 39 38 31 31 38 39 -31 29 -38 -39 -29 -29 -39 vhcurveto
          hintmask 10100000
          21 -614 rmoveto
          96 460 -96 hlineto
          endchar
        </CharString>
        <CharString name="f">
          -243 121 callsubr
          vstem
          330 708 rmoveto
          5 -18 -22 3 -17 hhcurveto
          -103 153 callsubr
          107 76 -107 38 vlineto
          64 33 23 40 16 16 -3 -7 16 vhcurveto
          endchar
        </CharString>
        <CharString name="ff">
          18 21 -21 431 76 125 84 hstem
          111 171 callsubr
          218 162 rmoveto
          5 -17 -22 3 -17 hhcurveto
          -45 -37 -12 -23 -27 hvcurveto
          18 -36 -58 17 -52 hhcurveto
          -109 153 callsubr
          163 308 callsubr
          107 76 -107 38 vlineto
          64 33 23 40 16 15 -3 -7 16 vhcurveto
          endchar
        </CharString>
        <CharString name="ffi">
          262 121 callsubr
          163 171 callsubr
          359 -39 288 callsubr
          -44 -50 15 -59 hhcurveto
          -47 -37 -13 -22 -27 hvcurveto
          18 -37 -58 17 -52 hhcurveto
          -109 153 callsubr
          163 308 callsubr
          163 -431 98 vlineto
          endchar
        </CharString>
        <CharString name="ffl">
          219 121 callsubr
          164 98 157 99 vstem
          373 507 rmoveto
          -164 38 hlineto
          64 32 23 47 33 33 -9 -11 28 vhcurveto
          -6 -20 -3 -22 -24 vvcurveto
          -262 -39 rmoveto
          -81 -76 81 308 callsubr
          164 308 callsubr
          106 76 -106 38 hlineto
          69 34 431 callsubr
          99 663 vlineto
          29 -55 -63 24 -72 hhcurveto
          -46 -38 -12 -24 -27 hvcurveto
          19 -37 -58 17 -52 hhcurveto
          -109 -59 -65 -105 hvcurveto
          endchar
        </CharString>
        <CharString name="fi">
          -45 121 callsubr
          163 98 vstem
          470 507 288 callsubr
          -43 -51 15 -59 hhcurveto
          -106 153 callsubr
          163 -431 98 vlineto
          endchar
        </CharString>
        <CharString name="five">
          -70 -7 90 236 87 164 85 hstem
          83 97 184 102 vstem
          180 59 callgsubr
        </CharString>
        <CharString name="fl">
          -43 121 callsubr
          158 98 vstem
          111 507 rmoveto
          -81 -76 81 308 callsubr
          107 76 -107 38 hlineto
          69 35 431 callsubr
          98 663 vlineto
          29 -54 -64 24 -72 hhcurveto
          -104 -60 -64 -106 hvcurveto
          endchar
        </CharString>
        <CharString name="florin">
          -147 -257 84 472 76 221 84 hstem
          -56 492 vstem
          170 375 rmoveto
          -106 -76 94 hlineto
          -61 -360 rlineto
          -72 -12 -25 -40 -52 hhcurveto
          -24 -21 5 8 -19 hvcurveto
          -85 vlineto
          -7 18 32 -5 27 hhcurveto
          103 51 73 115 19 hvcurveto
          63 368 rlineto
          110 76 -98 hlineto
          19 109 rlineto
          73 12 27 39 52 hhcurveto
          20 20 -4 -6 17 hvcurveto
          85 vlineto
          7 -20 -31 2 -21 hhcurveto
          -103 -52 -72 -116 -19 hvcurveto
          endchar
        </CharString>
        <CharString name="four">
          -31 21 -21 153 85 357 60 hstem
          334 98 vstem
          137 238 rmoveto
          197 357 rlineto
          -357 vlineto
          190 hmoveto
          -92 417 -159 395 callsubr
          98 153 92 vlineto
          endchar
        </CharString>
        <CharString name="foursuperior">
          -187 488 63 219 53 hstem
          228 70 vstem
          105 551 rmoveto
          123 219 rlineto
          -219 vlineto
          130 hmoveto
          -60 272 -109 hlineto
          -154 -272 rlineto
          -63 193 -96 70 96 60 vlineto
          endchar
        </CharString>
        <CharString name="fraction">
          -279 313 86 hstem
          106 80 vstem
          186 386 callgsubr
        </CharString>
        <CharString name="g">
          165 callgsubr
          413 callgsubr
          269 98 -88 callsubr
        </CharString>
        <CharString name="gbreve">
          165 callgsubr
          41 67 hstemhm
          43 103 -23 392 callsubr
          -73 98 hintmask 11110110
          393 720 rmoveto
          -56 -30 -42 -66 -66 -30 42 56 vhcurveto
          -78 hlineto
          -5 callgsubr
          hintmask 11111001
          -202 -622 -88 callsubr
        </CharString>
        <CharString name="gcircumflex">
          165 callgsubr
          44 162 413 callgsubr
          286 660 rmoveto
          -42 callsubr
          65 -460 -88 callsubr
        </CharString>
        <CharString name="gdotaccent">
          165 callgsubr
          66 120 hstemhm
          43 103 102 121 29 98 vstemhm
          309 580 rmoveto
          7 callsubr
          -34 26 -26 35 hvcurveto
          hintmask 11111010
          -40 -482 -88 callsubr
        </CharString>
        <CharString name="germandbls">
          -19 -8 82 -53 -21 601 89 hstemhm
          71 97 120 103 -29 100 -26 95 hintmask 10111010
          264 8 rmoveto
          -12 27 36 -4 32 hhcurveto
          109 63 64 87 hvcurveto
          135 -140 24 58 48 71 25 98 vvcurveto
          hintmask 01110100
          85 -73 74 -116 -122 -80 -68 -136 vhcurveto
          -486 97 490 vlineto
          77 38 34 68 54 34 -30 -45 vhcurveto
          -70 -74 -26 -78 vvcurveto
          hintmask 10111010
          -107 148 -18 -87 vvcurveto
          -40 -32 -26 -50 -34 -24 6 18 -32 vhcurveto
          endchar
        </CharString>
        <CharString name="grave">
          281 callsubr
          121 204 vstem
          230 798 45 callsubr
          endchar
        </CharString>
        <CharString name="greater">
          -32 108 465 hstem
          48 443 vstem
          491 388 rmoveto
          -443 185 rlineto
          -100 vlineto
          0 289 -107 53 -25 vhcurveto
          -54 -26 -288 -107 0 vvcurveto
          -100 vlineto
          443 185 rlineto
          endchar
        </CharString>
        <CharString name="greaterequal">
          -18 109 82 hstem
          464 46 vstem
          53 109 rmoveto
          457 82 -457 hlineto
          378 vmoveto
          -89 vlineto
          411 -72 -411 -72 rlineto
          -89 vlineto
          457 94 rlineto
          134 vlineto
          endchar
        </CharString>
        <CharString name="guillemotleft">
          -65 91 324 hstem
          27 452 vstem
          284 415 rmoveto
          -107 hlineto
          -150 -162 150 -162 rlineto
          107 hlineto
          -147 162 rlineto
          342 162 240 callsubr
        </CharString>
        <CharString name="guillemotright">
          -63 91 324 hstem
          33 452 vstem
          139 415 208 callsubr
          151 162 rlineto
          45 162 208 callsubr
          150 162 rlineto
          endchar
        </CharString>
        <CharString name="guilsinglleft">
          -257 91 324 hstem
          28 257 vstem
          285 415 240 callsubr
        </CharString>
        <CharString name="guilsinglright">
          -259 91 324 hstem
          35 257 vstem
          141 415 208 callsubr
          151 162 rlineto
          endchar
        </CharString>
        <CharString name="h">
          249 callsubr
          197 callgsubr
          167 707 rmoveto
          -98 -707 57 callgsubr
        </CharString>
        <CharString name="hbar">
          249 callsubr
          66 63 197 callgsubr
          167 580 rmoveto
          176 63 -176 64 -98 -64 -67 -63 67 -580 57 callgsubr
        </CharString>
        <CharString name="hcircumflex">
          249 callsubr
          244 162 197 callgsubr
          203 758 rmoveto
          -20 callgsubr
          -90 hlineto
          -25 callsubr
          82 102 rlineto
          48 -153 rmoveto
          -98 -707 57 callgsubr
        </CharString>
        <CharString name="hungarumlaut">
          281 callsubr
          35 374 vstem
          200 636 42 callgsubr
          endchar
        </CharString>
        <CharString name="hyphen">
          235 callgsubr
        </CharString>
        <CharString name="i">
          392 callgsubr
          601 123 hstemhm
          61 123 -111 99 318 callsubr
          hintmask 11100000
          -12 155 88 callgsubr
          endchar
        </CharString>
        <CharString name="iacute">
          392 callgsubr
          558 162 hstem
          73 99 vstem
          416 callgsubr
          15 51 -43 callsubr
          endchar
        </CharString>
        <CharString name="ibreve">
          392 callgsubr
          555 67 hstem
          -51 78 46 99 47 78 vstem
          -51 720 rmoveto
          -5 callgsubr
          -78 hlineto
          -56 -30 -42 -66 -66 -30 42 56 vhcurveto
          46 441 callgsubr
        </CharString>
        <CharString name="icircumflex">
          392 callgsubr
          558 162 hstem
          73 99 vstem
          79 720 -34 callsubr
          -96 441 callgsubr
        </CharString>
        <CharString name="idieresis">
          392 callgsubr
          581 120 hstemhm
          -48 121 0 99 1 121 318 callsubr
          hintmask 11101000
          -121 134 -45 callgsubr
          endchar
        </CharString>
        <CharString name="igrave">
          392 callgsubr
          558 162 hstem
          73 99 vstem
          416 callgsubr
          -10 213 45 callsubr
          endchar
        </CharString>
        <CharString name="ij">
          -99 -196 82 135 -21 601 123 hstemhm
          59 123 -111 99 128 123 -110 98 hintmask 11101010
          71 386 callsubr
          hintmask 11110010
          -12 155 88 callgsubr
          133 -843 22 callgsubr
          hintmask 11101100
          106 760 88 callgsubr
          endchar
        </CharString>
        <CharString name="imacron">
          392 callgsubr
          605 68 hstem
          73 99 vstem
          416 callgsubr
          202 98 250 callsubr
          endchar
        </CharString>
        <CharString name="infinity">
          256 176 79 180 79 hstem
          48 89 558 91 vstem
          137 346 rmoveto
          51 33 36 60 55 42 -46 -41 33 vhcurveto
          -40 -28 -43 -51 -59 hhcurveto
          -59 -34 40 51 hvcurveto
          279 -60 rmoveto
          -60 49 54 -48 87 hhcurveto
          110 70 72 99 99 -64 66 -112 -90 -59 -55 -56 -44 hvcurveto
          60 -49 -55 49 -85 hhcurveto
          -111 -69 -70 -100 -101 61 -65 114 91 57 56 54 45 hvcurveto
          279 60 rmoveto
          -54 -32 -35 -60 -55 -38 42 44 -37 vhcurveto
          40 28 41 52 61 hhcurveto
          59 33 -41 -48 hvcurveto
          endchar
        </CharString>
        <CharString name="iogonek">
          -332 -247 69 199 -21 601 123 hstemhm
          -24 82 3 123 -111 99 hintmask 11101000
          122 601 rmoveto
          34 28 27 34 35 -28 27 -34 -34 -27 -27 -35 -34 27 -27 34 hvcurveto
          hintmask 11100100
          50 -94 rmoveto
          -99 -494 hlineto
          hintmask 11110100
          -51 -33 -46 -51 -64 14 callsubr
          hvcurveto
          hintmask 11100100
          312 callsubr
        </CharString>
        <CharString name="itfLogo">
          1109 21 -21 230 190 40 190 hstem
          147 201 41 201 41 201 41 201 41 201 41 201 vstem
          147 hmoveto
          141 callgsubr
          242 -650 rmoveto
          141 callgsubr
          242 -650 rmoveto
          141 callgsubr
          -420 vmoveto
          201 190 -201 hlineto
          endchar
        </CharString>
        <CharString name="itfStar">
          80 62 644 hstem
          -5 679 vstem
          674 461 rmoveto
          -29 -206 -6 -3 -35 hvcurveto
          -69 254 -8 -28 -54 -193 -9 -33 rlinecurve
          -269 9 26 -16 173 -111 29 -18 rlinecurve
          -99 -254 25 20 157 132 29 21 rlinecurve
          211 -173 -11 29 -74 195 -12 30 rlinecurve
          endchar
        </CharString>
        <CharString name="itilde">
          392 callgsubr
          582 422 callgsubr
          73 99 318 callsubr
          171 191 106 callsubr
          hintmask 10110000
          -59 callsubr
          hintmask 11010000
          164 callsubr
        </CharString>
        <CharString name="j">
          -335 -196 82 715 123 hstemhm
          62 123 -110 98 hintmask 11010000
          -44 -181 22 callgsubr
          hintmask 11100000
          106 760 88 callgsubr
          endchar
        </CharString>
        <CharString name="jcircumflex">
          -335 -196 82 672 162 hstem
          75 98 vstem
          80 720 -34 callsubr
          -214 -901 22 callgsubr
          endchar
        </CharString>
        <CharString name="k">
          -77 21 -21 hstem
          69 98 vstem
          69 hmoveto
          98 700 -98 hlineto
          215 -435 108 callgsubr
        </CharString>
        <CharString name="kgreenlandic">
          -77 21 -21 hstem
          69 98 vstem
          69 hmoveto
          98 507 -98 hlineto
          215 -242 108 callgsubr
        </CharString>
        <CharString name="l">
          392 callgsubr
          195 callsubr
          707 -99 hlineto
          endchar
        </CharString>
        <CharString name="lacute">
          392 callgsubr
          758 162 hstem
          73 99 vstem
          82 758 -43 callsubr
          -104 -920 rmoveto
          99 707 -99 hlineto
          endchar
        </CharString>
        <CharString name="lcaron">
          -313 21 -21 510 198 195 callsubr
          707 -99 hlineto
          164 -197 rmoveto
          76 hlineto
          113 198 -6 callgsubr
          endchar
        </CharString>
        <CharString name="ldot">
          -160 21 -21 300 128 hstem
          69 98 93 130 vstem
          69 hmoveto
          98 707 -98 hlineto
          191 -343 rmoveto
          -36 27 -28 38 37 28 28 36 36 -28 28 -37 -38 -27 -28 -36 vhcurveto
          endchar
        </CharString>
        <CharString name="less">
          -32 108 465 hstem
          53 444 vstem
          53 293 rmoveto
          444 -185 rlineto
          100 vlineto
          0 -289 107 -53 26 vhcurveto
          52 25 290 107 0 vvcurveto
          100 vlineto
          -444 -185 rlineto
          endchar
        </CharString>
        <CharString name="lessequal">
          -18 109 82 hstem
          48 46 vstem
          48 109 rmoveto
          457 82 -457 hlineto
          457 378 rmoveto
          -457 -94 rlineto
          -134 vlineto
          457 -94 rlineto
          89 vlineto
          -411 72 411 72 rlineto
          endchar
        </CharString>
        <CharString name="logicalnot">
          -12 330 84 hstem
          439 87 vstem
          526 153 rmoveto
          261 -495 -84 408 -177 vlineto
          endchar
        </CharString>
        <CharString name="longs">
          -317 21 -21 685 84 hstem
          71 98 vstem
          290 761 rmoveto
          6 -18 -22 2 -17 hhcurveto
          -103 -59 -65 -105 hvcurveto
          -599 98 598 vlineto
          65 33 22 40 16 16 -3 -6 16 vhcurveto
          endchar
        </CharString>
        <CharString name="lozenge">
          -2 21 -21 594 80 hstem
          45 485 vstem
          387 265 rmoveto
          -70 -123 -30 -62 0 vvcurveto
          0 -30 62 -68 123 vhcurveto
          -38 72 38 72 rlineto
          68 123 30 62 0 vvcurveto
          0 30 -62 70 -123 vhcurveto
          39 -72 rlineto
          -84 337 rmoveto
          -112 hlineto
          -185 -337 185 -337 rlineto
          112 hlineto
          188 337 rlineto
          endchar
        </CharString>
        <CharString name="lslash">
          -271 21 -21 hstem
          101 99 vstem
          282 508 rmoveto
          -82 -57 rlineto
          256 -99 -325 vlineto
          -70 -49 rlineto
          -91 vlineto
          70 49 rlineto
          -291 99 361 vlineto
          82 57 rlineto
          endchar
        </CharString>
        <CharString name="m">
          253 21 -21 429 85 hstem
          69 98 202 98 201 98 vstem
          167 507 rmoveto
          -98 -507 98 275 hlineto
          110 63 44 50 60 29 -40 -69 vhcurveto
          -320 98 275 vlineto
          110 62 44 51 59 29 -40 -69 vhcurveto
          -320 98 341 vlineto
          106 -53 67 -106 -66 -56 -34 -64 -29 vhcurveto
          62 -20 -49 36 -77 hhcurveto
          -64 -51 -31 -57 -28 hvcurveto
          endchar
        </CharString>
        <CharString name="macron">
          235 callsubr
        </CharString>
        <CharString name="minus">
          -13 296 88 hstem
          53 457 vstem
          53 296 rmoveto
          457 88 -457 hlineto
          endchar
        </CharString>
        <CharString name="multiply">
          -74 147 389 hstem
          54 393 vstem
          447 472 rmoveto
          -64 64 -133 -132 -133 132 -63 -63 133 -132 -130 -130 64 -63 130 129 131 -130 63 63 -131 130 rlineto
          endchar
        </CharString>
        <CharString name="n">
          249 callsubr
          197 callgsubr
          167 507 -35 callgsubr
        </CharString>
        <CharString name="nacute">
          249 callsubr
          44 162 197 callgsubr
          468 720 50 callsubr
          -181 -51 -35 callgsubr
        </CharString>
        <CharString name="napostrophe">
          26 21 -21 429 85 -25 206 hstemhm
          121 98 223 98 hintmask 10111000
          56 695 rmoveto
          -77 -206 rlineto
          70 hlineto
          109 206 rlineto
          61 -188 rmoveto
          -98 -507 98 275 hlineto
          hintmask 11011000
          102 61 52 65 57 40 -36 -73 vhcurveto
          -320 98 343 vlineto
          106 -63 65 -100 -74 -55 -33 -61 -29 vhcurveto
          endchar
        </CharString>
        <CharString name="ncaron">
          249 callsubr
          44 162 197 callgsubr
          336 558 -78 callsubr
          -79 -51 -35 callgsubr
        </CharString>
        <CharString name="nine">
          -65 -8 91 149 84 257 89 hstem
          31 102 242 97 vstem
          252 316 rmoveto
          -72 -47 48 81 79 45 49 69 87 39 -82 -116 2 hvcurveto
          -35 -28 -39 -24 -56 hhcurveto
          -187 -305 rmoveto
          -12 32 40 -7 43 hhcurveto
          190 102 138 236 166 -73 130 -156 -134 -78 -97 -122 -131 91 -80 106 67 43 17 38 33 hvcurveto
          -131 -17 -60 -73 -121 hhcurveto
          -39 -38 9 14 -31 hvcurveto
          endchar
        </CharString>
        <CharString name="notequal">
          -13 193 83 129 82 hstem
          53 457 vstem
          510 405 rmoveto
          82 -131 vlineto
          39 85 rlineto
          -62 hlineto
          -38 -85 rlineto
          -265 -82 227 hlineto
          -58 -129 rlineto
          -169 -83 131 hlineto
          -38 -85 rlineto
          61 hlineto
          39 85 rlineto
          264 83 -227 hlineto
          59 129 rlineto
          endchar
        </CharString>
        <CharString name="ntilde">
          249 callsubr
          71 422 callgsubr
          69 98 223 98 hintmask 11101100
          404 701 -28 callsubr
          -293 -152 -35 callgsubr
        </CharString>
        <CharString name="numbersign">
          146 21 -21 165 78 184 80 hstem
          51 622 vstem
          427 243 rmoveto
          -166 hlineto
          39 184 rlineto
          166 hlineto
          207 hmoveto
          80 -104 vlineto
          35 167 rlineto
          -86 hlineto
          -35 -167 rlineto
          -166 hlineto
          35 167 rlineto
          -88 hlineto
          -35 -167 rlineto
          -130 -80 113 hlineto
          -38 -184 rlineto
          -123 -78 107 hlineto
          -35 -165 rlineto
          86 hlineto
          35 165 rlineto
          166 hlineto
          -35 -165 rlineto
          87 hlineto
          35 165 rlineto
          129 78 -113 hlineto
          39 184 rlineto
          endchar
        </CharString>
        <CharString name="o">
          200 callsubr
          hstem
          41 102 277 103 vstem
          71 callgsubr
          endchar
        </CharString>
        <CharString name="oacute">
          180 callsubr
          252 558 -43 callsubr
          -66 -729 -85 callsubr
          endchar
        </CharString>
        <CharString name="obreve">
          200 callsubr
          41 67 hstemhm
          41 102 -26 392 callsubr
          -45 103 hintmask 11101100
          117 720 rmoveto
          -5 callgsubr
          -78 hlineto
          -56 -30 -42 -66 -66 -30 42 56 vhcurveto
          hintmask 11110010
          85 -289 rmoveto
          102 38 -84 -96 -96 -44 -81 -95 -88 -50 82 96 95 46 84 91 hvcurveto
          1 -440 rmoveto
          156 86 116 146 145 -82 116 -160 -147 -93 373 callgsubr
          -143 85 -115 155 hvcurveto
          endchar
        </CharString>
        <CharString name="ocircumflex">
          200 callsubr
          43 162 hstem
          41 102 277 103 vstem
          280 431 rmoveto
          102 38 -84 -96 -96 -44 -81 -95 -88 -50 82 96 95 46 84 91 hvcurveto
          1 -440 rmoveto
          156 86 116 146 145 -82 116 -160 -147 -93 373 callgsubr
          -143 85 -115 155 hvcurveto
          -41 728 -34 callsubr
          endchar
        </CharString>
        <CharString name="odieresis">
          200 callsubr
          65 120 hstemhm
          41 102 -23 212 callgsubr
          -42 103 hintmask 11101100
          120 639 -45 callgsubr
          hintmask 11010010
          -60 -648 -85 callsubr
          endchar
        </CharString>
        <CharString name="oe">
          312 -9 83 -79 82 136 77 141 83 hstemhm
          41 102 266 99 244 95 hintmask 10111110
          752 290 rmoveto
          -244 hlineto
          98 12 58 44 62 hhcurveto
          66 43 -43 -77 3 hvcurveto
          -477 -238 rmoveto
          -88 -44 82 96 95 41 84 91 102 32 -84 -96 -96 -39 -81 -95 hvcurveto
          hintmask 01111110
          538 41 rmoveto
          -24 -34 -51 -14 -49 hhcurveto
          -87 -68 47 89 -15 hvcurveto
          332 hlineto
          3 17 3 30 15 vvcurveto
          156 -77 82 -131 -71 -66 -31 -59 -43 vhcurveto
          56 -38 -62 35 -84 hhcurveto
          -146 -88 373 callgsubr
          hvcurveto
          hintmask 10111110
          -143 80 -115 154 85 63 38 59 39 vhcurveto
          hintmask 01111110
          -59 45 73 -34 86 hhcurveto
          47 62 11 21 38 hvcurveto
          endchar
        </CharString>
        <CharString name="ogonek">
          -133 -235 69 hstem
          115 82 vstem
          329 -214 rmoveto
          72 vlineto
          -13 -18 -28 -11 -28 hhcurveto
          -35 -23 17 34 419 callsubr
          hvcurveto
          -36 45 rlineto
          -66 -24 -94 -65 -91 vvcurveto
          -62 40 -50 87 33 30 7 14 24 vhcurveto
          endchar
        </CharString>
        <CharString name="ograve">
          180 callsubr
          71 callgsubr
          -46 289 45 callsubr
          endchar
        </CharString>
        <CharString name="ohungarumlaut">
          180 callsubr
          345 558 42 callgsubr
          7 -729 -85 callsubr
          endchar
        </CharString>
        <CharString name="omacron">
          200 callsubr
          91 68 hstem
          41 102 277 103 vstem
          436 605 250 callsubr
          149 -614 -85 callsubr
          endchar
        </CharString>
        <CharString name="one">
          -237 21 -21 654 -20 hstem
          171 97 vstem
          16 452 rmoveto
          155 95 rlineto
          -547 97 654 -89 vlineto
          -163 -97 rlineto
          endchar
        </CharString>
        <CharString name="onesuperior">
          -319 392 431 hstem
          119 75 vstem
          10 678 rmoveto
          109 60 rlineto
          -346 75 431 -62 vlineto
          -122 -70 rlineto
          endchar
        </CharString>
        <CharString name="ordfeminine">
          -212 388 66 128 62 111 71 hstem
          4 86 161 84 vstem
          251 582 rmoveto
          -51 vlineto
          -42 -35 -35 -52 -49 -25 25 37 42 37 24 67 vhcurveto
          -158 136 rmoveto
          22 32 48 15 43 hhcurveto
          70 22 -34 -55 hvcurveto
          -22 -70 vlineto
          -112 -65 -50 -81 -75 52 -50 82 55 39 26 31 21 hvcurveto
          -53 82 272 vlineto
          106 -50 56 -117 -53 -51 -13 -16 -28 vhcurveto
          endchar
        </CharString>
        <CharString name="ordmasculine">
          -182 386 69 304 69 hstem
          -1 86 224 87 vstem
          197 386 rmoveto
          129 70 97 125 122 -66 98 -133 -122 -76 -98 -126 -121 69 -97 129 hvcurveto
          -1 373 rmoveto
          85 28 -73 -80 -82 -35 -69 -77 -72 -40 70 81 81 37 72 74 hvcurveto
          endchar
        </CharString>
        <CharString name="oslash">
          -14 -9 74 375 74 hstem
          50 93 296 94 vstem
          418 360 rmoveto
          15 -31 6 -38 -40 vvcurveto
          -101 -47 -85 -101 -29 -26 8 15 -21 vhcurveto
          -49 59 rmoveto
          -15 30 -8 37 38 vvcurveto
          101 49 87 98 32 26 -8 -13 20 vhcurveto
          165 95 rmoveto
          -94 hlineto
          -23 -31 rlineto
          20 -34 -43 11 -49 hhcurveto
          -146 -94 373 callgsubr
          -70 20 -62 39 -47 hvcurveto
          -59 -79 rlineto
          93 hlineto
          23 31 rlineto
          -20 34 42 -11 48 hhcurveto
          156 87 116 146 71 -20 64 -39 47 hvcurveto
          endchar
        </CharString>
        <CharString name="otilde">
          200 callsubr
          71 422 callgsubr
          41 102 277 103 hintmask 11101100
          71 callgsubr
          126 270 -28 callsubr
          endchar
        </CharString>
        <CharString name="p">
          115 callsubr
          428 rmoveto
          -98 -701 161 callsubr
        </CharString>
        <CharString name="paragraph">
          -18 -148 822 hstem
          215 82 108.5 82.5 vstem
          297 674 rmoveto
          -75 hlineto
          -139 -62 -87 -84 -90 65 -79 129 hvcurveto
          -482 82 vlineto
          108 hmoveto
          83 822 -82 hlineto
          endchar
        </CharString>
        <CharString name="parenleft">
          -259 -196 903 hstem
          62 105 vstem
          331 -196 rmoveto
          -110 140 -54 168 144 vvcurveto
          150 51 164 105 137 vhcurveto
          -106 hlineto
          -95 -120 -60 -156 -170 vvcurveto
          -167 55 -156 107 -134 vhcurveto
          endchar
        </CharString>
        <CharString name="parenright">
          -259 -196 903 hstem
          152 104 vstem
          102 707 rmoveto
          -106 hlineto
          104 -137 52 -164 -150 vvcurveto
          -144 -55 -168 -110 -140 vhcurveto
          108 hlineto
          106 134 55 156 167 vvcurveto
          170 -59 156 -95 120 vhcurveto
          endchar
        </CharString>
        <CharString name="partialdiff">
          -51 -9 90 258 86 hstem
          38 101 247 94 vstem
          252 81 rmoveto
          -71 -42 55 73 80 50 50 67 57 42 -23 -37 31 hvcurveto
          -123 -2 -48 -75 -84 hhcurveto
          -122 593 rmoveto
          97 -59 109 -111 37 -128 rrcurveto
          31 -33 -43 18 -53 hhcurveto
          -105 -101 -79 -134 -118 72 -103 138 151 81 118 176 148 -103 166 -110 75 hvcurveto
          endchar
        </CharString>
        <CharString name="percent">
          307 361 callgsubr
          48 444 callsubr
          118 444 callsubr
          hintmask 0111111110000000
          212 317 callgsubr
          hintmask 1011111110000000
          356 callsubr
          hintmask 0111111110000000
          -93 -75 -76 -92 hvcurveto
          hintmask 1001111110000000
          -453 360 rmoveto
          -93 75 -75 92 93 75 75 93 92 -75 75 -93 -92 -75 -75 -92 vhcurveto
          83 hmoveto
          46 38 38 46 47 38 -38 -46 -47 -38 -38 -47 -46 -38 38 47 vhcurveto
          hintmask 1011111110000000
          428 callgsubr
          38 -38 -47 -47 -38 -38 -46 -47 -38 38 47 vhcurveto
          endchar
        </CharString>
        <CharString name="period">
          -384 -8 135 hstem
          29 135 vstem
          29 60 rmoveto
          60 callgsubr
          endchar
        </CharString>
        <CharString name="periodcentered">
          -335 232 135 hstem
          54 135 vstem
          54 300 rmoveto
          60 callgsubr
          endchar
        </CharString>
        <CharString name="perthousand">
          693 361 callgsubr
          45 444 callsubr
          118 83 170 82 69 444 callsubr
          hintmask 0110000100000000
          209 317 callgsubr
          hintmask 1010000110000000
          356 callsubr
          hintmask 0110000100000000
          -93 -75 -76 -92 hvcurveto
          hintmask 0001111000000000
          -453 360 132 callgsubr
          hintmask 1010000111100000
          428 callgsubr
          39 -38 -47 -47 -39 -38 -46 -47 -38 38 47 vhcurveto
          321 hmoveto
          -93 75 -74 92 92 76 74 93 92 -76 76 -92 -92 -75 -76 -92 vhcurveto
          83 hmoveto
          47 38 38 46 47 38 -38 -47 -47 -38 -38 -47 -46 -38 38 47 vhcurveto
          endchar
        </CharString>
        <CharString name="pi">
          12 0 84 347 76 hstem
          114 98 172 98 vstem
          574 507 rmoveto
          -551 -76 91 -258 hlineto
          -73 -21 -16 -53 vhcurveto
          -84 vlineto
          109 63 40 140 hvcurveto
          251 172 308 callsubr
          92 vlineto
          endchar
        </CharString>
        <CharString name="plus">
          -13 295 89 hstem
          234 91 vstem
          510 384 rmoveto
          -185 187 -91 -187 -181 -89 181 -186 91 186 185 hlineto
          endchar
        </CharString>
        <CharString name="plusminus">
          -13 30 84 215 85 hstem
          234 91 vstem
          53 30 rmoveto
          457 84 -457 hlineto
          272 300 rmoveto
          160 -91 -160 -181 -85 181 -160 91 160 185 85 vlineto
          endchar
        </CharString>
        <CharString name="product">
          32 -185 92 677 90 hstem
          94 102 239 103 vstem
          538 674 rmoveto
          -444 -671 hlineto
          -65 -23 -31 -51 -19 -18 5 7 -15 vhcurveto
          -92 vlineto
          -6 16 30 -6 20 hhcurveto
          103 59 63 131 hvcurveto
          575 239 -764 103 vlineto
          endchar
        </CharString>
        <CharString name="q">
          3 -7 86 349 86 hstem
          41 101 270 99 vstem
          277 79 rmoveto
          -74 -61 62 115 106 58 66 74 65 73 -43 -130 -128 -73 -48 -62 hvcurveto
          135 428 rmoveto
          -76 vlineto
          51 -33 -50 32 -71 hhcurveto
          -137 -80 -111 -146 -151 84 -113 134 65 53 30 55 35 hvcurveto
          -272 99 701 vlineto
          endchar
        </CharString>
        <CharString name="question">
          -123 -8 137 85 161 221 86 hstemhm
          114 137 -114.5 94 86.5 101 hintmask 11101100
          51 548 rmoveto
          33 51 48 15 49 hhcurveto
          81 37 -45 -59 -79 -64 -38 -117 hvcurveto
          1 -161 rlineto
          93 hlineto
          1 101 rlineto
          80 6 107 53 125 vvcurveto
          116 -85 67 -125 -63 -57 -16 -21 -37 vhcurveto
          hintmask 11110100
          63 -585 rmoveto
          -39 30 -29 38 39 30 29 39 38 -30 31 -39 -38 -30 -31 -38 vhcurveto
          endchar
        </CharString>
        <CharString name="questiondown">
          -123 -173 87 220 162 85 136 hstemhm
          51 101 66 137 -116.5 94 hintmask 11110100
          418 -39 rmoveto
          -33 -51 -48 -14 -49 hhcurveto
          -82 -36 45 59 78 64 38 117 hvcurveto
          -1 162 rlineto
          -93 hlineto
          -1 -101 rlineto
          -80 -6 -107 -54 -125 vvcurveto
          -116 85 -67 124 64 57 17 20 37 vhcurveto
          hintmask 11111000
          -63 585 rmoveto
          39 -30 29 -38 -39 -30 -29 -39 -38 30 -30 39 38 30 30 38 vhcurveto
          endchar
        </CharString>
        <CharString name="quotedbl">
          -255 437 244 hstem
          43 85 66 404 callgsubr
          151 -244 rmoveto
          85 244 -85 hlineto
          endchar
        </CharString>
        <CharString name="quotedblbase">
          -216 -124 234 hstem
          1 361 vstem
          157 -124 rmoveto
          78 hlineto
          127 234 rlineto
          -115 hlineto
          -246 -234 rmoveto
          79 hlineto
          117 234 -6 callgsubr
          endchar
        </CharString>
        <CharString name="quotedblleft">
          -216 419 callgsubr
          16 361 vstem
          221 695 rmoveto
          -78 hlineto
          -127 -235 rlineto
          115 hlineto
          246 235 rmoveto
          -79 hlineto
          -118 -235 rlineto
          110 hlineto
          endchar
        </CharString>
        <CharString name="quotedblright">
          -216 419 callgsubr
          17 360 vstem
          172 460 rmoveto
          79 hlineto
          126 235 rlineto
          -115 hlineto
          -245 -235 rmoveto
          78 hlineto
          118 235 rlineto
          -110 hlineto
          endchar
        </CharString>
        <CharString name="quoteleft">
          -372 419 callgsubr
          16 205 vstem
          221 695 rmoveto
          -81 hlineto
          -124 -235 264 callgsubr
          endchar
        </CharString>
        <CharString name="quoteright">
          -371 419 callgsubr
          17 205 vstem
          17 460 rmoveto
          80 hlineto
          125 235 rlineto
          -117 hlineto
          endchar
        </CharString>
        <CharString name="quotesinglbase">
          -371 -124 234 hstem
          -1 205 vstem
          -1 -124 rmoveto
          81 hlineto
          124 234 rlineto
          -116 hlineto
          endchar
        </CharString>
        <CharString name="quotesingle">
          -406 437 244 hstem
          43 404 callgsubr
          endchar
        </CharString>
        <CharString name="r">
          -238 21 -21 422 90 hstem
          69 98 vstem
          167 507 0 callsubr
        </CharString>
        <CharString name="racute">
          342 callgsubr
          370 720 50 callsubr
          -83 -51 0 callsubr
        </CharString>
        <CharString name="radical">
          198 -196 88 460 81 hstem
          31 790 vstem
          238 433 rmoveto
          -188 hlineto
          -19 -81 rlineto
          125 hlineto
          200 -548 rlineto
          128 hlineto
          337 1096 rlineto
          -103 hlineto
          -229 -746 rlineto
          -45 -149 -23 -111 -2 vvcurveto
          -1 4 -32 110 -50 144 rrcurveto
          endchar
        </CharString>
        <CharString name="rcaron">
          342 callgsubr
          250 558 -78 callsubr
          7 -51 0 callsubr
        </CharString>
        <CharString name="registered">
          -115 347 50 147 38 63 39 54 49 hstem
          10 52 101 47 53 48 90 51 vstem
          210 645 rmoveto
          21 hlineto
          21 11 -8 -23 -18 -9 -14 -20 hvcurveto
          -24 hlineto
          -47 102 rmoveto
          -220 47 80 17 vlineto
          48 -80 rlineto
          56 hlineto
          -56 88 rlineto
          24 12 12 21 29 vvcurveto
          44 -25 26 -59 vhcurveto
          5 -287 rmoveto
          -103 -67 69 101 101 67 70 103 102 67 -70 -101 -101 -67 -69 -102 hvcurveto
          -1 390 rmoveto
          -128 -93 -92 -128 -128 93 -92 128 127 94 92 128 128 -94 92 -127 hvcurveto
          endchar
        </CharString>
        <CharString name="ring">
          -133 603 61 109 60 hstem
          107 61 107 62 vstem
          107 717 128 callgsubr
          endchar
        </CharString>
        <CharString name="s">
          329 callgsubr
          284 callgsubr
          358 490 38 callgsubr
        </CharString>
        <CharString name="sacute">
          329 callgsubr
          46 162 284 callgsubr
          186 558 -43 callsubr
          77 -230 38 callgsubr
        </CharString>
        <CharString name="scaron">
          329 callgsubr
          46 162 284 callgsubr
          358 490 -89 callgsubr
          -80 157 -78 callsubr
          endchar
        </CharString>
        <CharString name="scircumflex">
          329 callgsubr
          46 162 284 callgsubr
          358 490 -89 callgsubr
          -174 319 -34 callsubr
          endchar
        </CharString>
        <CharString name="section">
          -40 -198 91 695 92 hstemhm
          53 100 -93 107 203 105 -95 99 hintmask 11100100
          153 297 rmoveto
          20 7 23 15 19 vhcurveto
          23 -11 24 -11 23 -11 rrcurveto
          78 -38 57 -24 -62 vvcurveto
          -22 -6 -21 -13 -17 vhcurveto
          -24 13 -25 11 -24 10 rrcurveto
          -80 35 -55 26 60 vvcurveto
          282 351 rmoveto
          23 -46 -58 9 -51 hhcurveto
          hintmask 11011000
          -127 -93 -61 -114 -40 14 -30 22 -23 hvcurveto
          hintmask 11101000
          -26 -30 -17 -39 -46 vvcurveto
          -108 83 -47 87 -39 vhcurveto
          109 -48 38 -22 -52 vvcurveto
          -58 -45 -30 -75 -65 -67 21 38 -51 vhcurveto
          -107 vlineto
          -29 49 69 -14 66 hhcurveto
          131 93 63 117 43 -15 32 -23 27 hvcurveto
          hintmask 11010100
          26 29 16 42 46 vvcurveto
          109 -76 42 -84 40 vhcurveto
          -92 45 -60 12 59 vvcurveto
          50 41 30 75 53 59 -18 -24 40 vhcurveto
          endchar
        </CharString>
        <CharString name="semicolon">
          -332 324 134 hstem
          71 134 vstem
          71 390 rmoveto
          -37 29 -29 37 38 30 29 37 38 -30 30 -38 -37 -29 -30 -38 vhcurveto
          -79 -514 362 callgsubr
        </CharString>
        <CharString name="seven">
          -118 21 -21 569 85 hstem
          14 431 vstem
          14 225 callgsubr
        </CharString>
        <CharString name="six">
          -48 404 callsubr
          47 100 248 101 hintmask 11011100
          283 76 rmoveto
          -71 -59 58 136 -6 hvcurveto
          37 34 48 28 56 hhcurveto
          66 44 -47 -76 -80 -42 -56 -70 hvcurveto
          166 580 rmoveto
          hintmask 11101100
          9 -27 -32 6 -36 hhcurveto
          -190 -117 -160 -214 -179 78 -131 157 132 82 95 131 125 -73 83 -119 -59 -56 -25 -38 -39 hvcurveto
          121 17 67 102 124 hhcurveto
          34 30 -6 -14 27 hvcurveto
          endchar
        </CharString>
        <CharString name="slash">
          -156 -102 809 hstem
          -7 464 vstem
          -7 -102 rmoveto
          101 hlineto
          363 809 rlineto
          -101 hlineto
          endchar
        </CharString>
        <CharString name="space">
          -331 endchar
        </CharString>
        <CharString name="sterling">
          -50 0 85 200 75 206 93 hstemhm
          131 105 -88 103 hintmask 11101000
          177 85 rmoveto
          44 28 30 43 94 11 -1 12 12 vvcurveto
          168 75 hlineto
          hintmask 11110000
          -176 hlineto
          -3 28 -3 28 25 vvcurveto
          87 43 38 79 38 32 -10 -20 32 vhcurveto
          96 vlineto
          17 -30 -42 10 -45 hhcurveto
          -137 -75 -80 -138 -24 3 -28 4 -29 hvcurveto
          hintmask 11101000
          -78 -75 86 hlineto
          1 -12 1 -12 -11 vvcurveto
          -86 -20 -47 -72 -35 vhcurveto
          -82 434 85 vlineto
          endchar
        </CharString>
        <CharString name="summation">
          -123 -200 86 702 86 hstem
          30 453 vstem
          483 674 rmoveto
          -453 -86 hlineto
          170 -344 -170 -358 rlineto
          -86 453 86 -342 vlineto
          168 358 -167 344 rlineto
          341 hlineto
          endchar
        </CharString>
        <CharString name="t">
          -203 -5 84 352 76 hstem
          97 99 vstem
          196 431 -29 callgsubr
        </CharString>
        <CharString name="tbar">
          -186 -5 84 170 71 113 74 hstem
          106 99 vstem
          205 249 rmoveto
          133 71 -133 113 133 74 -133 124 -99 -124 -79 -74 79 -113 -79 -71 79 -95 hlineto
          -101 48 -58 109 23 36 6 12 22 vhcurveto
          88 vlineto
          -14 -19 -26 -8 -24 hhcurveto
          -46 -24 25 48 hvcurveto
          endchar
        </CharString>
        <CharString name="tcaron">
          -203 -5 84 352 76 66 58 hstem
          97 99 vstem
          442 771 350 callgsubr
          -80 -198 rlineto
          76 hlineto
          -133 -142 -29 callgsubr
        </CharString>
        <CharString name="thorn">
          115 callsubr
          628 rmoveto
          -98 -901 161 callsubr
        </CharString>
        <CharString name="three">
          -106 -6 90 205 84 199 89 hstemhm
          306 102 -84 100 hintmask 11101000
          57 530 rmoveto
          22 35 53 20 47 hhcurveto
          hintmask 11110000
          68 46 -30 -66 -67 -61 425 callsubr
          48 -38 -62 -60 -45 -45 -81 -61 -53 14 26 -48 401 callgsubr
          76 426 callgsubr
          70 28 35 58 70 vvcurveto
          95 -74 79 -139 -53 -54 -18 -18 -31 vhcurveto
          endchar
        </CharString>
        <CharString name="threesuperior">
          -244 388 67 122 65 117 68 hstemhm
          208 79 -67 78 hintmask 11101000
          105 642 rmoveto
          -65 21 vlineto
          65 29 -25 -37 -36 -27 -24 -47 -38 -37 9 19 -36 hvcurveto
          -70 vlineto
          -16 32 50 -9 37 hhcurveto
          93 51 51 69 60 -42 38 -48 5 hvcurveto
          hintmask 11110000
          48 11 31 34 54 vvcurveto
          64 -48 53 -93 -36 -38 -12 -15 -24 vhcurveto
          -74 vlineto
          20 29 36 13 29 hhcurveto
          40 26 -18 -39 -40 -37 -20 -45 hvcurveto
          endchar
        </CharString>
        <CharString name="tilde">
          -133 647 422 callgsubr
          51 354 hintmask 10100000
          349 763 106 callsubr
          hintmask 01100000
          -59 callsubr
          hintmask 10100000
          164 callsubr
        </CharString>
        <CharString name="trademark">
          134 593 81 -62 62 hstemhm
          91 70 hintmask 01100000
          277 331 rmoveto
          70 hlineto
          9 142 rlineto
          5 78 -2 42 0 vvcurveto
          0 9 -39 29 -81 vhcurveto
          48 -136 rlineto
          66 hlineto
          52 136 rlineto
          hintmask 10100000
          30 81 9 39 0 vvcurveto
          0 -2 -44 5 -75 vhcurveto
          11 -143 rlineto
          69 hlineto
          -29 343 rlineto
          -85 hlineto
          -53 -142 rlineto
          -28 -74 -13 -42 0 vvcurveto
          0 -9 41 -28 75 vhcurveto
          hintmask 01100000
          -51 142 rlineto
          -84 hlineto
          -301 -62 rmoveto
          87 -282 70 282 84 62 -241 hlineto
          endchar
        </CharString>
        <CharString name="two">
          -81 0 85 484 92 hstem
          335 102 vstem
          171 85 rmoveto
          162 123 104 260 callgsubr
          45 61 290 callgsubr
          419 85 vlineto
          endchar
        </CharString>
        <CharString name="twosuperior">
          -212 392 65 298 72 hstem
          233 80 vstem
          43 392 rmoveto
          284 65 -181 hlineto
          94 68 73 86 83 vvcurveto
          87 -67 46 -78 -43 -40 -15 -18 -29 vhcurveto
          -79 vlineto
          23 31 39 17 35 hhcurveto
          42 30 -22 -46 -76 -96 -92 -94 -70 hvcurveto
          endchar
        </CharString>
        <CharString name="u">
          253 callsubr
          hstemhm
          63 99 222 98 hintmask 10110000
          384 507 rmoveto
          -276 vlineto
          -74 callgsubr
          hintmask 01110000
          188 callgsubr
        </CharString>
        <CharString name="uacute">
          163 callsubr
          444 720 50 callsubr
          60 -51 rmoveto
          -276 vlineto
          -74 callgsubr
          hintmask 01111000
          188 callgsubr
        </CharString>
        <CharString name="ubreve">
          253 callsubr
          555 67 hstemhm
          63 99 -58 392 callsubr
          -68 98 hintmask 10101100
          374 720 rmoveto
          -56 -30 -42 -66 -66 -30 42 56 vhcurveto
          -78 hlineto
          -5 callgsubr
          hintmask 10110010
          -68 -213 rmoveto
          -276 vlineto
          -74 callgsubr
          hintmask 01110010
          188 callgsubr
        </CharString>
        <CharString name="ucircumflex">
          163 callsubr
          274 660 rmoveto
          -42 callsubr
          192 -51 rmoveto
          -276 vlineto
          -74 callgsubr
          hintmask 01111000
          188 callgsubr
        </CharString>
        <CharString name="udieresis">
          253 callsubr
          579 120 hstemhm
          63 99 -58 212 callgsubr
          -62 98 hintmask 10101100
          385 579 -45 callsubr
          hintmask 10110010
          219 -72 rmoveto
          -276 vlineto
          -74 callgsubr
          hintmask 01110010
          188 callgsubr
        </CharString>
        <CharString name="ugrave">
          253 callsubr
          557 162 hstemhm
          63 99 222 98 hintmask 10111000
          318 557 75 callgsubr
          150 -50 rmoveto
          -276 vlineto
          -74 callgsubr
          hintmask 01111000
          188 callgsubr
        </CharString>
        <CharString name="uhungarumlaut">
          163 callsubr
          398 558 rmoveto
          134 162 -6 callgsubr
          -100 -162 rlineto
          32 162 rmoveto
          -103 hlineto
          -94 -162 rlineto
          75 hlineto
          151 -327 rmoveto
          -74 callgsubr
          hintmask 01111000
          -87 98 507 -98 vlineto
          endchar
        </CharString>
        <CharString name="umacron">
          253 callsubr
          605 68 hstemhm
          63 99 222 98 hintmask 10111000
          425 673 284 callsubr
          -41 -98 rmoveto
          -276 vlineto
          -74 callgsubr
          hintmask 01111000
          188 callgsubr
        </CharString>
        <CharString name="underscore">
          -20 -119 84 hstem
          26 505 vstem
          26 -119 rmoveto
          505 84 -505 hlineto
          endchar
        </CharString>
        <CharString name="uni00A0">
          -331 endchar
        </CharString>
        <CharString name="uni00AD">
          235 callgsubr
        </CharString>
        <CharString name="uni00B5">
          -20 -6 84 -78 78 hstemhm
          69 98 223 98 hintmask 10110000
          390 507 rmoveto
          -276 vlineto
          -99 -41 -54 -70 -58 -54 36 71 vhcurveto
          322 -98 -686 98 202 vlineto
          -19 27 33 -10 38 hhcurveto
          59 43 28 50 23 hvcurveto
          hintmask 01110000
          -72 98 507 vlineto
          endchar
        </CharString>
        <CharString name="uni0122">
          104 299 callsubr
          43 96 208 89 204 97 447 callsubr
          360 101 vstem
          240 16 callgsubr
          294 436 -80 callgsubr
        </CharString>
        <CharString name="uni0123">
          165 callgsubr
          44 197 413 callgsubr
          447 755 rmoveto
          -76 hlineto
          -113 -197 rlineto
          109 hlineto
          -98 -460 -88 callsubr
        </CharString>
        <CharString name="uni0136">
          22 295 callgsubr
          351 callgsubr
          176 674 rmoveto
          -103 -674 103 hlineto
          -4 16 callgsubr
          59 385 225 callsubr
        </CharString>
</ttFont>
